<?xml version="1.0" encoding="UTF-8" standalone="no"?>
<!-- Created with Inkscape (http://www.inkscape.org/) -->

<svg
   width="67.743896mm"
   height="68.369125mm"
   viewBox="0 0 67.743896 68.369125"
   version="1.1"
   id="svg1"
   sodipodi:docname="Logo Leht.svg"
   inkscape:version="1.3.2 (091e20e, 2023-11-25, custom)"
   inkscape:export-filename="wax LOGO5.png"
   inkscape:export-xdpi="96"
   inkscape:export-ydpi="96"
   xmlns:inkscape="http://www.inkscape.org/namespaces/inkscape"
   xmlns:sodipodi="http://sodipodi.sourceforge.net/DTD/sodipodi-0.dtd"
   xmlns:xlink="http://www.w3.org/1999/xlink"
   xmlns="http://www.w3.org/2000/svg"
   xmlns:svg="http://www.w3.org/2000/svg">
  <sodipodi:namedview
     id="namedview1"
     pagecolor="#ffffff"
     bordercolor="#000000"
     borderopacity="0.25"
     inkscape:showpageshadow="2"
     inkscape:pageopacity="0.0"
     inkscape:pagecheckerboard="0"
     inkscape:deskcolor="#d1d1d1"
     inkscape:document-units="mm"
     showguides="true"
     inkscape:zoom="0.80087681"
     inkscape:cx="554.39238"
     inkscape:cy="460.1207"
     inkscape:window-width="1920"
     inkscape:window-height="1137"
     inkscape:window-x="-8"
     inkscape:window-y="-8"
     inkscape:window-maximized="1"
     inkscape:current-layer="layer1" />
  <defs
     id="defs1" />
  <g
     inkscape:label="Layer 1"
     inkscape:groupmode="layer"
     id="layer1"
     transform="translate(-140.21964,-78.049635)">
    <g
       id="Logo3"
       transform="matrix(1.0778996,-0.00121211,0.00121211,1.0778996,-81.714139,-11.008475)"
       inkscape:export-filename=".\Logo3.svg"
       inkscape:export-xdpi="96"
       inkscape:export-ydpi="96">
      <circle
         style="fill:none;fill-opacity:1;stroke:#000000;stroke-width:1.00844;stroke-dasharray:none;stroke-opacity:1"
         id="path3-5-3-3"
         cx="108.07791"
         cy="181.59729"
         r="28.131618" />
      <text
         xml:space="preserve"
         style="font-style:normal;font-variant:normal;font-weight:normal;font-stretch:normal;font-size:13.0522px;font-family:'Microsoft Himalaya';-inkscape-font-specification:'Microsoft Himalaya';text-align:center;text-anchor:middle;display:inline;fill:#000000;fill-opacity:1;stroke:none;stroke-width:0.924913;stroke-dasharray:none"
         id="text1-1-1-2"
         transform="matrix(0.79386003,-0.16298262,0.16298262,0.79386003,-7.3204927,55.050276)"><textPath
           xlink:href="#path3-5-3-3"
           startOffset="50%"
           id="textPath3-2-5"
           style="font-size:12.5192px;fill:#000000;fill-opacity:1">   persona grata,  bona fide,  persona grata,  bona fide, </textPath></text>
    </g>
    <g
       id="Logo2"
       transform="matrix(1.0778996,-0.00121211,0.00121211,1.0778996,-82.405344,-84.079274)"
       inkscape:export-filename=".\Logo2.svg"
       inkscape:export-xdpi="96"
       inkscape:export-ydpi="96">
      <circle
         style="fill:#000000;fill-opacity:1;stroke:#ffffff;stroke-width:1.00844;stroke-dasharray:none;stroke-opacity:1"
         id="path3-5-3"
         cx="108.07791"
         cy="181.59729"
         r="28.131618" />
      <text
         xml:space="preserve"
         style="font-style:normal;font-variant:normal;font-weight:normal;font-stretch:normal;font-size:13.0522px;font-family:'Microsoft Himalaya';-inkscape-font-specification:'Microsoft Himalaya';text-align:center;text-anchor:middle;display:inline;fill:#ffffff;fill-opacity:1;stroke:none;stroke-width:0.924913;stroke-dasharray:none"
         id="text1-1-1"
         transform="matrix(0.79386003,-0.16298262,0.16298262,0.79386003,-7.3204927,55.050276)"><textPath
           xlink:href="#path3-5-3"
           startOffset="50%"
           id="textPath3-2"
           style="font-size:12.5192px;fill:#ffffff;fill-opacity:1">   persona grata,  bona fide,  persona grata,  bona fide, </textPath></text>
    </g>
    <g
       id="Logo1"
       transform="matrix(1.0778996,-0.00121211,0.00121211,1.0778996,-82.405344,-159.76723)"
       inkscape:export-filename=".\Logo 1.svg"
       inkscape:export-xdpi="96"
       inkscape:export-ydpi="96">
      <circle
         style="fill:#660000;fill-opacity:1;stroke:#aa0000;stroke-width:1.00844;stroke-dasharray:none;stroke-opacity:1"
         id="path3-5"
         cx="108.07791"
         cy="181.59729"
         r="28.131618" />
      <text
         xml:space="preserve"
         style="font-style:normal;font-variant:normal;font-weight:normal;font-stretch:normal;font-size:13.0522px;font-family:'Microsoft Himalaya';-inkscape-font-specification:'Microsoft Himalaya';text-align:center;text-anchor:middle;display:inline;fill:#aa0000;fill-opacity:1;stroke:none;stroke-width:0.924913;stroke-dasharray:none"
         id="text1-1"
         transform="matrix(0.79386003,-0.16298262,0.16298262,0.79386003,-7.3204927,55.050276)"><textPath
           xlink:href="#path3-5"
           startOffset="50%"
           id="textPath3"
           style="font-size:12.5192px;fill:#aa0000">   persona grata,  bona fide,  persona grata,  bona fide, </textPath></text>
    </g>
    <g
       id="Logo2-8"
       transform="matrix(1.0778996,-0.00121211,0.00121211,1.0778996,56.683129,-84.07927)"
       inkscape:export-filename=".\Logo2.svg"
       inkscape:export-xdpi="96"
       inkscape:export-ydpi="96">
      <ellipse
         style="fill:#000000;fill-opacity:1;stroke:none;stroke-width:1.21657;stroke-dasharray:none;stroke-opacity:1"
         id="path4-9-7-0"
         cx="36.871952"
         cy="37.885376"
         rx="33.871952"
         ry="34.184563"
         transform="matrix(0.92772903,0.00104324,-0.00104324,0.92772903,74.550775,147.06236)" />
      <circle
         style="fill:#000000;fill-opacity:1;stroke:#ffffff;stroke-width:1.00844;stroke-dasharray:none;stroke-opacity:1"
         id="path3-5-3-5"
         cx="108.07791"
         cy="181.59729"
         r="28.131618" />
      <circle
         style="fill:none;fill-opacity:1;stroke:#ffffff;stroke-width:1.00844;stroke-dasharray:none;stroke-opacity:1"
         id="path3-6-3-3-1"
         cx="108.07791"
         cy="181.59729"
         r="21.334946"
         inkscape:label="path3-6" />
      <path
         style="font-size:12.5192px;font-family:'Microsoft Himalaya';-inkscape-font-specification:'Microsoft Himalaya';text-align:center;text-anchor:middle;fill:#ffffff;stroke-width:0.924913"
         d="m 139.36846,185.87897 0.22257,1.22519 -0.0307,0.1497 -0.85626,-0.17591 q 0.42596,0.38706 0.55976,0.70785 0.13855,0.32801 0.0734,0.64537 -0.064,0.31136 -0.25934,0.53333 -0.19661,0.22795 -0.485,0.35592 -0.28241,0.1292 -0.63142,0.15734 -0.35024,0.0341 -0.72149,-0.0421 -0.41915,-0.0861 -0.77178,-0.28337 -0.35386,-0.19127 -0.59576,-0.47187 -0.24313,-0.2746 -0.34682,-0.62042 -0.10369,-0.34581 -0.025,-0.72903 0.0283,-0.13772 0.0636,-0.24903 0.0341,-0.10532 0.091,-0.19973 0.0568,-0.0944 0.14362,-0.18267 0.0856,-0.0823 0.21071,-0.17513 l -1.11972,-0.23004 q -0.1976,-0.0406 -0.31383,-0.052 -0.11623,-0.0114 -0.18701,-9.7e-4 -0.0708,0.0104 -0.10811,0.0402 -0.0386,0.0358 -0.0796,0.0835 -0.0832,0.10147 -0.14599,0.40685 l -0.14371,-0.0295 0.39611,-1.92808 0.14371,0.0295 -0.0209,0.10179 q -0.0271,0.13173 -0.036,0.23599 -0.009,0.10425 0.0494,0.18488 0.0583,0.0806 0.20064,0.14731 0.13633,0.0654 0.40578,0.12081 l 3.47294,0.71349 q 0.20958,0.0431 0.33901,0.0509 0.13419,0.0151 0.20744,-0.007 0.0792,-0.0212 0.11073,-0.0833 0.0363,-0.055 0.0559,-0.15077 0.01,-0.0479 0.005,-0.11746 3.2e-4,-0.0623 -0.0149,-0.14034 z m -0.90396,1.14977 -1.37121,-0.28171 q -0.4431,-0.091 -0.59419,-0.0846 -0.12467,-6.6e-4 -0.24722,0.0491 -0.11655,0.0509 -0.22253,0.1415 -0.1,0.0918 -0.17618,0.21966 -0.0774,0.13387 -0.11064,0.29554 -0.048,0.23353 0.0229,0.4353 0.0756,0.209 0.24141,0.37411 0.17177,0.16634 0.42892,0.28158 0.25592,0.12122 0.57328,0.18642 0.34729,0.0713 0.65546,0.0598 0.30693,-0.006 0.54956,-0.093 0.24139,-0.0815 0.39928,-0.24248 0.16265,-0.1538 0.20817,-0.37535 0.0185,-0.0898 0.0225,-0.17012 0.01,-0.0791 -0.0194,-0.17873 -0.0294,-0.0997 -0.11738,-0.24878 -0.0832,-0.1419 -0.24265,-0.36812 z m -1.3661,3.91438 q -0.39717,-0.14199 -0.74504,-0.1495 -0.34993,-0.002 -0.6304,0.0927 -0.28252,0.10025 -0.47996,0.28934 -0.19949,0.19484 -0.29209,0.45387 -0.12347,0.34536 -0.0241,0.66654 0.0974,0.32693 0.50186,0.6663 l -0.11804,0.0941 q -0.24462,-0.13289 -0.45468,-0.34431 -0.2043,-0.20936 -0.33785,-0.47134 -0.12986,-0.25416 -0.16225,-0.54489 -0.0324,-0.29072 0.0726,-0.58429 0.11318,-0.31658 0.34065,-0.55336 0.23116,-0.22897 0.5433,-0.35757 0.31584,-0.12079 0.69497,-0.12808 0.38282,5.4e-4 0.80302,0.15076 0.45473,0.16256 0.76634,0.41678 0.31161,0.25422 0.48092,0.56144 0.16932,0.30721 0.19101,0.64605 0.0196,0.34459 -0.10384,0.68995 -0.10495,0.29357 -0.29705,0.50404 -0.18634,0.21253 -0.44008,0.32306 -0.25005,0.11835 -0.55187,0.1273 -0.30182,0.009 -0.62992,-0.10834 z m 0.21873,0.0782 -0.58441,1.63474 q 0.49956,0.14613 0.79812,0.0192 0.30227,-0.11915 0.41957,-0.44725 0.0556,-0.15541 0.0457,-0.32771 -0.01,-0.17229 -0.0875,-0.33639 -0.0797,-0.15833 -0.22935,-0.30271 -0.14387,-0.14232 -0.36219,-0.23984 z m -0.54069,4.7207 -0.7562,-0.37388 q 0.54488,0.8013 0.32543,1.24515 -0.0488,0.0986 -0.12228,0.16458 -0.0762,0.0714 -0.16631,0.10189 -0.0873,0.0387 -0.18028,0.0336 -0.0902,0.003 -0.1724,-0.0375 -0.14247,-0.0704 -0.19234,-0.21784 -0.0526,-0.14192 0.0125,-0.27343 0.0298,-0.0603 0.1088,-0.12351 0.0763,-0.0577 0.16353,-0.11009 0.0845,-0.0469 0.15541,-0.0936 0.0682,-0.0413 0.0844,-0.0742 0.0488,-0.0986 -0.0451,-0.30872 -0.0939,-0.21008 -0.27816,-0.45803 l -1.61652,-0.79923 q -0.14795,-0.0731 -0.27663,-0.11632 -0.13139,-0.0377 -0.24887,-0.0208 -0.112,0.0196 -0.21821,0.11033 -0.10344,0.0989 -0.20097,0.29615 l -0.13152,-0.065 0.85342,-1.72611 0.13151,0.065 q -0.0813,0.16439 -0.10812,0.27386 -0.0296,0.11496 0.006,0.20774 0.0359,0.0928 0.14567,0.17432 0.11519,0.0842 0.31794,0.18447 l 1.30418,0.64481 q 0.2959,0.1463 0.47119,0.21932 0.17258,0.0785 0.23828,0.0974 0.24628,0.0536 0.3411,-0.13821 0.0298,-0.0603 0.0432,-0.12868 0.0188,-0.0657 0.0294,-0.15596 l 0.14777,0.0321 -0.0902,1.21694 z m -2.27562,3.92807 -1.07777,-0.68604 0.0755,-0.11861 q 0.29208,0.099 0.51805,0.11962 0.2227,0.0258 0.38633,-0.015 0.16363,-0.0408 0.29023,-0.14858 0.12331,-0.10266 0.22179,-0.25737 0.0788,-0.12376 0.10505,-0.24472 0.0263,-0.12095 0.0155,-0.22926 -0.0108,-0.1083 -0.0567,-0.19551 -0.0492,-0.082 -0.12656,-0.13129 -0.098,-0.0624 -0.19362,-0.0943 -0.0989,-0.0267 -0.21051,-0.0108 -0.11158,0.0159 -0.24943,0.0731 -0.14113,0.0623 -0.32868,0.17483 l -0.56921,0.34781 q -0.78677,0.48468 -1.34886,0.12689 -0.21659,-0.13787 -0.33799,-0.34558 -0.11953,-0.19927 -0.1481,-0.4276 -0.0286,-0.22832 0.0258,-0.4618 0.0493,-0.23675 0.17399,-0.43271 0.0952,-0.14955 0.22602,-0.29816 0.12566,-0.15188 0.30056,-0.30142 0.0516,-0.0469 0.0914,-0.0867 0.0399,-0.0399 0.0628,-0.076 0.0492,-0.0773 -0.009,-0.17956 l 0.0722,-0.11345 1.12933,0.71887 -0.0722,0.11344 q -0.27191,-0.10786 -0.51993,-0.12805 -0.24285,-0.0169 -0.44868,0.0332 -0.20067,0.0534 -0.36102,0.16874 -0.16364,0.12047 -0.26868,0.28548 -0.0755,0.11861 -0.10177,0.23957 -0.0263,0.12095 -0.0103,0.23254 0.0211,0.11487 0.0825,0.21192 0.0614,0.0971 0.15938,0.15943 0.11861,0.0755 0.23441,0.0985 0.12095,0.0263 0.2677,-0.0108 0.15191,-0.0337 0.35493,-0.13638 0.19974,-0.0975 0.49278,-0.27327 0.28461,-0.17391 0.49466,-0.26484 0.20677,-0.0858 0.37415,-0.10966 0.16409,-0.0187 0.30239,0.0258 0.1383,0.0445 0.28785,0.13975 0.19596,0.12473 0.31831,0.29681 0.12421,0.18052 0.16592,0.38822 0.0417,0.2077 -0.003,0.4257 -0.0394,0.22129 -0.17399,0.43272 -0.0427,0.067 -0.12895,0.15704 -0.0863,0.09 -0.17771,0.17673 -0.0947,0.0919 -0.17115,0.16642 -0.0764,0.0745 -0.0961,0.10547 -0.0361,0.0567 -0.0319,0.0956 0.006,0.0474 0.0675,0.14441 z m -1.93985,2.52472 q -0.25187,0.29937 -0.58131,0.45358 -0.32945,0.15421 -0.68407,0.16742 -0.35388,0.0218 -0.71176,-0.10351 -0.35714,-0.11673 -0.65651,-0.36859 -0.35083,-0.29515 -0.54246,-0.65608 -0.19557,-0.35625 -0.24078,-0.72981 -0.0405,-0.36961 0.059,-0.72527 0.10418,-0.35172 0.3403,-0.63238 0.24793,-0.29469 0.58205,-0.44497 0.3302,-0.1456 0.68949,-0.15487 0.35536,-0.005 0.71324,0.12074 0.35395,0.13001 0.65332,0.38188 0.30873,0.25973 0.4942,0.5995 0.19015,0.3437 0.24791,0.71183 0.0578,0.36814 -0.0284,0.72698 -0.0862,0.35885 -0.33413,0.65355 z m -0.12318,-0.27139 q 0.11412,-0.13565 0.15957,-0.31311 0.0501,-0.17352 0.002,-0.38194 -0.0437,-0.20448 -0.19831,-0.43845 -0.15466,-0.23396 -0.44935,-0.48189 -0.30405,-0.25579 -0.63587,-0.4311 -0.33108,-0.1667 -0.63996,-0.22685 -0.30888,-0.0601 -0.57685,0.002 -0.26796,0.0621 -0.44112,0.26796 -0.12593,0.14969 -0.17605,0.32321 -0.0494,0.18213 0.003,0.38587 0.0523,0.20375 0.21948,0.43229 0.16795,0.23716 0.47667,0.49689 0.30873,0.25973 0.63119,0.42717 0.32715,0.17137 0.62667,0.22365 0.30026,0.0609 0.55888,-0.009 0.25935,-0.0614 0.44038,-0.27658 z m -3.17816,2.59416 q 0.0346,1.02866 -0.41485,1.4247 -0.15594,0.13741 -0.33744,0.19957 -0.17746,0.0667 -0.38289,0.0278 -0.20598,-0.0303 -0.44287,-0.18824 -0.23286,-0.15331 -0.49958,-0.45601 l -1.05882,-1.20165 q -0.16165,-0.18346 -0.27294,-0.27278 -0.11589,-0.0853 -0.21025,-0.0999 -0.0949,-0.006 -0.18958,0.053 -0.0947,0.059 -0.2231,0.17214 l -0.097,-0.11008 1.38969,-1.2245 0.097,0.11007 -0.055,0.0485 q -0.13759,0.12123 -0.19535,0.21287 -0.0583,0.10026 -0.0425,0.19221 0.0113,0.096 0.091,0.20498 0.0792,0.11762 0.21255,0.26897 l 1.01436,1.1512 q 0.34351,0.38984 0.59394,0.47064 0.24584,0.0848 0.48434,-0.12532 0.3715,-0.32734 0.37765,-1.04158 l -1.30533,-1.48143 q -0.15761,-0.17887 -0.25973,-0.27627 -0.10267,-0.0888 -0.19703,-0.10341 -0.0944,-0.0146 -0.20225,0.0479 -0.10386,0.0671 -0.26438,0.20851 l -0.097,-0.11007 1.39428,-1.22855 0.097,0.11007 -0.0596,0.0525 q -0.11007,0.097 -0.15866,0.18054 -0.0491,0.0922 -0.0379,0.18817 0.0113,0.096 0.0864,0.20903 0.0746,0.12165 0.20796,0.273 l 0.91737,1.04112 q 0.26673,0.30271 0.42139,0.45974 0.15466,0.15703 0.24684,0.20616 0.0916,0.0578 0.14962,0.0311 0.0534,-0.0226 0.11761,-0.0792 0.0459,-0.0404 0.0842,-0.0986 0.0378,-0.0496 0.0818,-0.1291 l 0.14285,0.0697 -0.54539,1.09162 -0.13301,0.1172 z m -5.8741,1.32635 q 0.12428,-0.34508 0.20364,-0.55819 0.0776,-0.20465 0.12212,-0.27049 0.1319,-0.21108 0.33622,-0.34541 0.16345,-0.10745 0.34166,-0.13683 0.16975,-0.0311 0.33907,0.004 0.16757,0.0435 0.32114,0.15465 0.15357,0.11119 0.27446,0.29507 0.14104,0.21454 0.17013,0.43683 0.024,0.22564 -0.059,0.47773 -0.0847,0.26056 -0.28845,0.56273 -0.30495,0.49311 -0.68975,1.00945 l 0.0806,0.12259 q 0.15447,0.23496 0.29943,0.36644 0.13986,0.13484 0.27692,0.17641 0.14042,0.0467 0.2712,0.0119 0.13413,-0.0297 0.27204,-0.12033 0.21964,-0.14439 0.2701,-0.34583 0.0505,-0.20143 -0.0469,-0.34956 l -0.14118,-0.19249 q -0.1041,-0.15835 -0.0795,-0.29891 0.0229,-0.1321 0.15569,-0.21941 0.1277,-0.0839 0.26652,-0.0508 0.14217,0.0382 0.24291,0.19145 0.094,0.14302 0.10808,0.33131 0.0174,0.19339 -0.0569,0.40315 -0.0742,0.20976 -0.24002,0.41384 -0.16752,0.21255 -0.44335,0.39389 -0.36266,0.23842 -0.68346,0.2957 -0.32592,0.0606 -0.60955,-0.12598 -0.15868,-0.10784 -0.45755,-0.56244 l -0.69848,-1.06245 q -0.17798,-0.27071 -0.28048,-0.41549 -0.10424,-0.1363 -0.16832,-0.18927 -0.0641,-0.053 -0.10481,-0.0481 -0.0374,0.01 -0.0833,0.0402 -0.0358,0.0235 -0.0597,0.0539 -0.0239,0.0304 -0.0447,0.0879 -0.0207,0.0575 -0.0382,0.14217 -0.0192,0.0931 -0.049,0.23704 l -0.12761,-0.1941 q 0.0473,-0.76264 0.39463,-0.99099 0.16345,-0.10746 0.33949,-0.0622 0.17939,0.0503 0.36409,0.33126 z m 0.14775,0.22474 0.78579,1.19526 q 0.26353,-0.37809 0.57549,-0.90507 0.11147,-0.19765 0.10442,-0.4198 -0.0122,-0.21879 -0.13977,-0.41289 -0.0806,-0.12259 -0.19197,-0.20299 -0.10803,-0.0753 -0.2248,-0.10826 -0.11678,-0.033 -0.23383,-0.0218 -0.11881,0.0196 -0.21586,0.0834 -0.2605,0.17126 -0.45947,0.79221 z m -4.1124,2.77439 q 0.38662,0.035 0.66294,0.24327 0.27851,0.21397 0.40988,0.55641 0.10072,0.26253 0.0856,0.53024 -0.0187,0.2756 -0.13562,0.51688 -0.12046,0.24918 -0.34007,0.44474 -0.21741,0.20126 -0.5199,0.3173 -0.50224,0.19268 -0.96166,0.0874 l -0.74195,0.28464 q -0.0856,0.0328 -0.13346,0.0447 -0.0457,0.0175 -0.065,0.0184 -0.0228,0.009 -0.0272,-0.003 -0.008,-0.004 -0.018,-0.0127 -0.0281,-0.022 -0.0456,-0.0676 -0.0232,-0.0435 -0.0473,-0.10624 -0.0306,-0.0799 5.4e-4,-0.11806 0.0277,-0.0303 0.20461,-0.0981 l 0.45658,-0.17516 q -0.32636,-0.20216 -0.48838,-0.6245 -0.092,-0.23971 -0.0781,-0.49381 0.016,-0.24839 0.13515,-0.48397 0.11562,-0.22768 0.33522,-0.42323 0.2218,-0.18985 0.5357,-0.31028 0.13127,-0.0504 0.27481,-0.0858 0.13784,-0.0332 0.28443,-0.0437 0.1143,-0.21408 0.12977,-0.34441 0.0177,-0.12463 -0.013,-0.20453 -0.0241,-0.0628 -0.0622,-0.094 -0.0382,-0.0312 -0.13471,-0.0269 -0.0966,0.004 -0.26864,0.0507 -0.17779,0.0486 -0.47105,0.15453 -0.39818,0.13966 -0.65587,0.21888 -0.2634,0.0814 -0.38763,0.11597 -0.37708,0.0923 -0.66574,-0.0458 -0.29219,-0.13016 -0.41261,-0.44406 -0.10948,-0.28536 -0.0381,-0.59427 0.0635,-0.31243 0.26735,-0.60016 0.2017,-0.29344 0.51395,-0.53763 0.31225,-0.24419 0.68893,-0.3887 0.26254,-0.10072 0.55839,-0.14875 0.29584,-0.048 0.55565,-0.0364 0.25981,0.0116 0.45504,0.0939 0.18733,0.0787 0.24645,0.23281 0.0328,0.0856 0.0442,0.16638 0.006,0.0829 -0.0234,0.21196 -0.0348,0.13119 -0.11264,0.33784 -0.0858,0.20313 -0.2256,0.53831 0.24574,0.0432 0.36067,0.10388 0.11713,0.0664 0.16311,0.18623 0.0263,0.0685 0.0376,0.14925 0.006,0.0829 -0.0221,0.19835 -0.0256,0.12111 -0.0972,0.29265 -0.0774,0.17374 -0.21365,0.41588 z m -0.45051,-1.29376 q 0.20848,-0.53175 0.1012,-0.81141 -0.0504,-0.13126 -0.19251,-0.19458 -0.14785,-0.0611 -0.35105,-0.0617 -0.2111,-0.004 -0.46613,0.0479 -0.25503,0.052 -0.52898,0.1571 -0.34815,0.13357 -0.573,0.29839 -0.22484,0.16483 -0.34656,0.34247 -0.12391,0.17194 -0.15127,0.33957 -0.0295,0.16192 0.023,0.29889 0.0372,0.097 0.10345,0.15019 0.0662,0.0532 0.19788,0.055 0.12596,0.004 0.32877,-0.0476 0.1971,-0.0494 0.49825,-0.15187 0.85696,-0.30912 1.35694,-0.42236 z m 0.60602,3.69588 q 0.27966,-0.10728 0.38613,-0.41002 0.10865,-0.29703 -0.0709,-0.76503 -0.0985,-0.25683 -0.23529,-0.45971 -0.13456,-0.19717 -0.2929,-0.31975 -0.16403,-0.12039 -0.33604,-0.15916 -0.17553,-0.0309 -0.35816,0.0392 -0.29107,0.11167 -0.39621,0.4008 -0.10514,0.28914 0.0766,0.76284 0.0985,0.25683 0.2331,0.454 0.13676,0.20288 0.29509,0.32546 0.16052,0.12829 0.33823,0.16487 0.17772,0.0366 0.36035,-0.0335 z m -3.78863,1.40428 -0.20226,-0.81897 q -0.26064,0.93329 -0.74134,1.05201 -0.10682,0.0264 -0.20463,0.0128 -0.10375,-0.0122 -0.18515,-0.0613 -0.0859,-0.0418 -0.142,-0.11605 -0.0606,-0.0669 -0.0826,-0.1559 -0.0381,-0.1543 0.0423,-0.28751 0.0745,-0.13174 0.21694,-0.16691 0.0653,-0.0161 0.16456,0.003 0.0933,0.021 0.18961,0.0539 0.0904,0.0344 0.17182,0.0583 0.0755,0.0254 0.11115,0.0166 0.10682,-0.0264 0.20675,-0.23366 0.0999,-0.20727 0.17046,-0.50804 l -0.43237,-1.7507 q -0.0396,-0.16024 -0.0896,-0.2864 -0.056,-0.1247 -0.14471,-0.20353 -0.0873,-0.0729 -0.22508,-0.0955 -0.14229,-0.0152 -0.35594,0.0375 l -0.0352,-0.14243 1.86939,-0.46168 0.0352,0.14243 q -0.17804,0.044 -0.279,0.0941 -0.10689,0.0516 -0.15459,0.13892 -0.0477,0.0873 -0.0392,0.22376 0.01,0.14236 0.0642,0.36194 l 0.34883,1.41243 q 0.0791,0.32047 0.13645,0.50151 0.0514,0.18251 0.0794,0.24486 0.11797,0.22272 0.32568,0.17142 0.0653,-0.0161 0.12616,-0.05 0.0624,-0.028 0.13811,-0.0782 l 0.0708,0.13364 -0.98797,0.71624 z m -4.62329,-2.54434 q 0.26337,-0.25527 0.42835,-0.41178 0.1597,-0.14968 0.22862,-0.18924 0.21128,-0.13158 0.45385,-0.16238 0.19406,-0.0246 0.36703,0.0273 0.16614,0.0467 0.30282,0.15257 0.13139,0.11272 0.22043,0.28011 0.089,0.16739 0.11675,0.3857 0.0323,0.2547 -0.0393,0.46714 -0.0777,0.21321 -0.26308,0.40312 -0.19069,0.19675 -0.50651,0.37857 -0.49072,0.30878 -1.06336,0.60332 l 0.0185,0.14554 q 0.0354,0.27896 0.1078,0.46079 0.0663,0.1826 0.17114,0.2802 0.10559,0.10367 0.23833,0.12995 0.13351,0.0323 0.29724,0.0116 0.26076,-0.0331 0.39466,-0.19183 0.13389,-0.15873 0.11157,-0.33459 l -0.0422,-0.23497 q -0.0239,-0.18799 0.0601,-0.3034 0.0786,-0.10857 0.23631,-0.12859 0.15161,-0.0192 0.26172,0.0715 0.11089,0.0968 0.13399,0.27876 0.0216,0.1698 -0.0486,0.34508 -0.0694,0.18135 -0.22832,0.33709 -0.15893,0.15574 -0.39755,0.26615 -0.24392,0.11723 -0.57138,0.15881 -0.43056,0.0547 -0.74388,-0.035 -0.31938,-0.0888 -0.49206,-0.38119 -0.0951,-0.16662 -0.16362,-0.70633 l -0.16016,-1.26136 q -0.0408,-0.3214 -0.0692,-0.49649 -0.0337,-0.16826 -0.0679,-0.24402 -0.0343,-0.0757 -0.073,-0.0893 -0.0379,-0.008 -0.0925,-5.8e-4 -0.0425,0.005 -0.0773,0.0221 -0.0348,0.0168 -0.0787,0.0593 -0.0439,0.0425 -0.0968,0.11088 -0.0582,0.0752 -0.14824,0.19136 l -0.0293,-0.23044 q 0.37782,-0.66417 0.79018,-0.71652 0.19406,-0.0246 0.33228,0.0934 0.13899,0.12408 0.18134,0.45761 z m 0.0339,0.26683 0.18017,1.41902 q 0.40294,-0.2237 0.91484,-0.55982 0.18703,-0.1285 0.27838,-0.33112 0.0853,-0.20185 0.056,-0.43229 -0.0185,-0.14554 -0.0832,-0.26673 -0.0639,-0.11512 -0.15429,-0.19607 -0.0904,-0.081 -0.20041,-0.12245 -0.11531,-0.0346 -0.23053,-0.02 -0.30928,0.0393 -0.76102,0.50948 z m -2.68706,4.33665 -0.023,-1.22848 -0.87399,0.0164 -0.005,-0.28725 0.87399,-0.0164 -0.0455,-2.43251 q -0.003,-0.18335 -0.0302,-0.30513 -0.0329,-0.12167 -0.083,-0.18798 -0.0563,-0.0662 -0.12407,-0.0955 -0.0677,-0.0232 -0.14714,-0.0217 -0.14057,0.003 -0.26132,0.0844 -0.12675,0.088 -0.19089,0.25425 l -0.1589,0.003 q 0.13302,-0.40601 0.39205,-0.61262 0.25903,-0.20661 0.54018,-0.21187 0.32392,-0.006 0.52373,0.21641 0.19982,0.22248 0.21011,0.77254 l 0.0473,2.52418 0.59895,-0.0112 0.003,0.13446 q -0.34585,0.14098 -0.61482,0.47006 -0.27497,0.3353 -0.50223,0.93261 z m -3.50416,-4.60179 q 0.31179,-0.19316 0.50639,-0.31084 0.18796,-0.11213 0.26374,-0.13607 0.23451,-0.0834 0.47806,-0.0617 0.19484,0.0174 0.35273,0.10507 0.15234,0.0811 0.26327,0.21371 0.10429,0.13817 0.15554,0.32071 0.0512,0.18254 0.0317,0.40174 -0.0228,0.25573 -0.1381,0.44798 -0.12141,0.19171 -0.34307,0.33766 -0.2283,0.1515 -0.57566,0.26171 -0.54533,0.1969 -1.16765,0.36239 l -0.013,0.14613 q -0.025,0.28008 0.007,0.47318 0.0258,0.19254 0.10738,0.31028 0.081,0.12382 0.20509,0.17784 0.12352,0.0601 0.28792,0.0747 0.26182,0.0233 0.42651,-0.10315 0.1647,-0.12648 0.18043,-0.30306 l 0.009,-0.23854 q 0.0168,-0.18876 0.12346,-0.28359 0.10001,-0.0893 0.25832,-0.0752 0.15221,0.0136 0.24041,0.12575 0.0877,0.11828 0.0714,0.30094 -0.0152,0.17049 -0.12117,0.32675 -0.10652,0.16235 -0.29503,0.28057 -0.18851,0.11822 -0.4452,0.17514 -0.26332,0.0625 -0.59212,0.0332 -0.4323,-0.0385 -0.71926,-0.19295 -0.29304,-0.15499 -0.39933,-0.47745 -0.0573,-0.18309 -0.009,-0.72499 l 0.11283,-1.26646 q 0.0288,-0.32271 0.0384,-0.49982 0.003,-0.17157 -0.0143,-0.2529 -0.0173,-0.0813 -0.0522,-0.10284 -0.0354,-0.0154 -0.0902,-0.0203 -0.0426,-0.004 -0.0802,0.005 -0.0376,0.009 -0.0896,0.0411 -0.052,0.0322 -0.11827,0.0877 -0.073,0.061 -0.18568,0.1553 l 0.0206,-0.23138 q 0.5109,-0.56819 0.92494,-0.5313 0.19484,0.0173 0.30468,0.16216 0.1093,0.15089 0.0795,0.48577 z m -0.0239,0.26791 -0.12693,1.42477 q 0.4414,-0.13251 1.01326,-0.3516 0.21015,-0.0856 0.34266,-0.26405 0.12641,-0.17899 0.14702,-0.41037 0.013,-0.14613 -0.0243,-0.27833 -0.0379,-0.12611 -0.10888,-0.2245 -0.071,-0.0984 -0.16964,-0.1624 -0.10526,-0.0585 -0.22095,-0.0688 -0.31052,-0.0277 -0.85224,0.33526 z m -1.43041,-2.4185 -0.0339,0.17401 q -0.44088,0.0574 -0.71897,0.30217 -0.28408,0.24362 -0.346,0.56163 -0.0129,0.066 0.007,0.12585 0.0147,0.0527 0.0507,0.0597 0.03,0.006 0.14369,-0.0343 0.11368,-0.0401 0.22769,-0.0179 0.192,0.0374 0.28981,0.17475 0.0906,0.1422 0.0509,0.34621 -0.0187,0.096 -0.0782,0.17783 -0.0595,0.0818 -0.13721,0.12897 -0.0849,0.052 -0.18187,0.0705 -0.10418,0.0233 -0.21218,0.002 -0.13201,-0.0257 -0.24033,-0.10907 -0.10832,-0.0834 -0.18213,-0.21606 -0.075,-0.1267 -0.0986,-0.29322 -0.0296,-0.16768 0.008,-0.35969 0.0806,-0.41402 0.43755,-0.71195 0.35094,-0.2991 1.01468,-0.38161 z m -8.426266,2.07805 q -0.832001,0.43792 -1.387078,0.1676 -0.252807,-0.12312 -0.432921,-0.35362 -0.180115,-0.2305 -0.251599,-0.53048 -0.07698,-0.30266 -0.03152,-0.66128 0.03997,-0.3613 0.227319,-0.746 0.200735,-0.41219 0.51492,-0.69433 0.311508,-0.27665 0.679118,-0.41719 0.36761,-0.14054 0.753135,-0.13637 0.38285,0.01 0.729086,0.17829 0.577061,0.28103 1.011306,1.02285 l -1.702232,3.49533 q -0.168617,0.34624 -0.243129,0.54113 -0.08268,0.1977 -0.09803,0.29902 -0.01534,0.10131 0.03159,0.14457 0.04143,0.0406 0.112878,0.0754 0.115412,0.0562 0.287745,0.0653 l -0.01477,0.15599 -1.211965,-0.0803 -0.164874,-0.0803 z m 0.115088,-0.23632 0.982263,-2.01697 q -0.202707,-0.56106 -0.614893,-0.7618 -0.164875,-0.0803 -0.375249,-0.0672 -0.210374,0.0131 -0.425101,0.13294 -0.220223,0.11713 -0.433807,0.34627 -0.213584,0.22915 -0.384878,0.58088 -0.155235,0.31876 -0.195915,0.61172 -0.04618,0.29027 0.0082,0.52756 0.04893,0.2346 0.176476,0.40551 0.124871,0.17639 0.306232,0.26472 0.08793,0.0428 0.1784,0.0665 0.09047,0.0237 0.205307,0.0252 0.106669,0.004 0.251236,-0.0272 0.136395,-0.0288 0.321681,-0.0881 z m -5.289541,-1.83527 q -0.322388,-0.22163 -0.507827,-0.53457 -0.185438,-0.31294 -0.232981,-0.66461 -0.05604,-0.35009 0.03399,-0.71844 0.08154,-0.36678 0.303174,-0.68916 0.25973,-0.3778 0.600374,-0.60354 0.335606,-0.2292 0.703011,-0.31043 0.363943,-0.0762 0.727572,-0.0117 0.360166,0.0696 0.662405,0.27736 0.317351,0.21818 0.499326,0.53615 0.176938,0.31452 0.221018,0.67122 0.03904,0.35324 -0.05099,0.72159 -0.09507,0.36489 -0.316712,0.68727 -0.228563,0.33247 -0.548742,0.55002 -0.323643,0.22259 -0.684437,0.31578 -0.360794,0.0932 -0.726312,0.0422 -0.365518,-0.051 -0.682869,-0.26918 z m 0.258159,-0.14891 q 0.146082,0.10043 0.327109,0.12844 0.177565,0.0331 0.380315,-0.0353 0.199286,-0.0633 0.417147,-0.23991 0.21786,-0.17662 0.436034,-0.49397 0.225099,-0.32743 0.367399,-0.67468 0.133799,-0.34569 0.163704,-0.65894 0.02991,-0.31326 -0.05794,-0.57394 -0.08784,-0.26068 -0.309482,-0.41305 -0.161194,-0.11082 -0.338759,-0.14388 -0.186064,-0.0315 -0.383777,0.0403 -0.197712,0.0718 -0.408961,0.26036 -0.219749,0.19016 -0.448312,0.52263 -0.228563,0.33246 -0.363936,0.66964 -0.138836,0.34223 -0.161816,0.64541 -0.03148,0.30475 0.06329,0.55536 0.08627,0.25217 0.317983,0.41148 z m -2.890181,-2.91157 q -1.020447,0.13422 -1.45822,-0.27472 -0.151881,-0.14187 -0.231351,-0.31649 -0.08364,-0.17015 -0.06479,-0.37839 0.01022,-0.20795 0.144392,-0.45904 0.130001,-0.24663 0.405409,-0.54145 l 1.093288,-1.17038 q 0.166915,-0.17868 0.245022,-0.29811 0.07364,-0.12361 0.07904,-0.21894 -0.0032,-0.095 -0.07113,-0.18355 -0.06789,-0.0885 -0.192967,-0.20536 l 0.100149,-0.10721 1.353522,1.26438 -0.100149,0.10721 -0.0536,-0.0501 q -0.134013,-0.12518 -0.230817,-0.17378 -0.105444,-0.0483 -0.195428,-0.0236 -0.09445,0.0205 -0.195188,0.11044 -0.109377,0.0902 -0.247081,0.23764 l -1.047387,1.12123 q -0.354692,0.3797 -0.410812,0.63679 -0.06059,0.25291 0.1717,0.4699 0.361833,0.338 1.073303,0.27485 l 1.347832,-1.44287 q 0.162741,-0.17421 0.249783,-0.2853 0.0784,-0.11079 0.0838,-0.20613 0.0054,-0.0953 -0.06725,-0.19666 -0.07682,-0.0968 -0.23317,-0.2429 l 0.100149,-0.10721 1.357989,1.26854 -0.100149,0.10721 -0.05807,-0.0542 q -0.107209,-0.10015 -0.19508,-0.14041 -0.09651,-0.04 -0.190961,-0.0195 -0.09445,0.0205 -0.199654,0.10628 -0.113844,0.0861 -0.251548,0.23346 l -0.947239,1.01403 q -0.275408,0.29482 -0.416697,0.46398 -0.141288,0.16916 -0.181252,0.26567 -0.0486,0.0968 -0.01645,0.15194 0.02768,0.051 0.09022,0.10937 0.04467,0.0417 0.106327,0.0742 0.05302,0.0328 0.13642,0.0689 l -0.05548,0.14894 -1.139372,-0.43695 -0.129545,-0.12101 z m -1.889832,-5.71777 q 0.3555,0.0902 0.575309,0.14855 0.211213,0.0574 0.281055,0.0953 0.222882,0.11081 0.376389,0.30113 0.122805,0.15226 0.169325,0.32679 0.04744,0.16592 0.02903,0.33784 -0.02701,0.17099 -0.122776,0.33462 -0.09577,0.16364 -0.267064,0.30179 -0.199841,0.16118 -0.418262,0.2117 -0.222258,0.0457 -0.481208,-0.0124 -0.267546,-0.0591 -0.588055,-0.23251 -0.520364,-0.25569 -1.071586,-0.58859 l -0.114195,0.0921 q -0.218873,0.17653 -0.335674,0.33356 -0.120638,0.15228 -0.148719,0.29273 -0.03284,0.14428 0.01445,0.27107 0.04253,0.13062 0.146143,0.25909 0.165019,0.2046 0.370398,0.23529 0.205378,0.0307 0.343364,-0.0806 l 0.177891,-0.15919 q 0.147502,-0.11896 0.289793,-0.10807 0.133695,0.01 0.233474,0.13368 0.09594,0.11895 0.07646,0.26032 -0.02424,0.14521 -0.166988,0.26034 -0.133227,0.10745 -0.319261,0.1397 -0.190793,0.0361 -0.406764,-0.0175 -0.215971,-0.0536 -0.435171,-0.19875 -0.227796,-0.14611 -0.43503,-0.40305 -0.272474,-0.33783 -0.360599,-0.65156 -0.09196,-0.3185 0.06627,-0.6189 0.09193,-0.16839 0.515407,-0.50994 l 0.98969,-0.79824 q 0.25218,-0.20339 0.386328,-0.31945 0.125552,-0.11697 0.172057,-0.18589 0.0465,-0.0689 0.03775,-0.10898 -0.01351,-0.0362 -0.04805,-0.079 -0.02686,-0.0333 -0.05941,-0.0542 -0.03254,-0.0209 -0.09179,-0.0359 -0.05925,-0.015 -0.145208,-0.0242 -0.09455,-0.0101 -0.240682,-0.0258 l 0.180809,-0.14583 q 0.763637,-0.0269 1.024599,0.29664 0.122805,0.15226 0.09488,0.33186 -0.03268,0.18342 -0.29438,0.3945 z m -0.209358,0.16885 -1.113401,0.89802 q 0.401864,0.22561 0.956612,0.48499 0.207531,0.0918 0.427949,0.0632 0.216579,-0.0333 0.397388,-0.17915 0.114195,-0.0921 0.183414,-0.21076 0.06446,-0.11482 0.08594,-0.23424 0.02148,-0.11942 -9.35e-4,-0.23485 -0.03101,-0.11635 -0.103929,-0.20675 -0.195721,-0.24267 -0.833042,-0.38047 z m -5.192651,-3.23131 2.175533,-1.15579 q 0.25912,-0.13767 0.393066,-0.25036 0.131078,-0.11809 0.175107,-0.21762 0.03576,-0.10207 0.01434,-0.19452 -0.02969,-0.095 -0.08132,-0.19214 l -0.157738,-0.29691 0.12956,-0.0688 1.04968,1.97579 -0.12956,0.0688 -0.07744,-0.14575 q -0.06883,-0.12956 -0.147109,-0.19873 -0.08654,-0.0717 -0.201597,-0.0798 -0.117922,-0.0135 -0.272619,0.0341 -0.160095,0.0504 -0.376029,0.16516 l -2.175533,1.1558 0.341289,0.6424 -0.264519,0.14053 -0.341289,-0.6424 -0.215934,0.11472 q -0.356291,0.18929 -0.699425,0.24699 -0.348532,0.0606 -0.653711,-0.006 -0.310577,-0.0634 -0.558737,-0.25692 -0.256427,-0.19603 -0.425638,-0.51453 -0.07457,-0.14036 -0.109153,-0.32272 -0.04285,-0.18489 -0.03358,-0.36287 0.0093,-0.17798 0.07675,-0.32458 0.06461,-0.152 0.19417,-0.22083 0.107967,-0.0574 0.253893,-0.0172 0.140527,0.043 0.200755,0.15638 0.02294,0.0432 0.03509,0.0921 0.0093,0.0435 0.0027,0.10932 -0.0066,0.0658 -0.03728,0.15132 -0.0361,0.0884 -0.101385,0.21307 -0.125171,0.24647 -0.132592,0.38885 -0.01282,0.14525 0.06175,0.28561 0.08891,0.16735 0.243774,0.23736 0.146601,0.0675 0.361355,0.0157 0.203958,-0.0461 0.981319,-0.45905 l 0.237528,-0.12619 -0.453141,-0.85294 0.264519,-0.14053 z m -1.605869,-2.50868 2.778929,-1.16605 q 0.248018,-0.10407 0.371474,-0.18902 0.11782,-0.0826 0.153807,-0.17061 0.02799,-0.0913 -9.5e-4,-0.19185 -0.03694,-0.10382 -0.09607,-0.24474 l 0.135283,-0.0568 0.704834,1.67976 -0.135283,0.0568 q -0.07332,-0.17474 -0.138442,-0.26674 -0.07312,-0.0953 -0.170053,-0.12089 -0.09693,-0.0256 -0.22567,0.0151 -0.136741,0.0375 -0.334028,0.12027 l -1.330278,0.55819 q -0.326933,0.13719 -0.513853,0.22888 -0.18692,0.0917 -0.265282,0.15772 -0.084,0.0684 -0.08289,0.13422 -0.0069,0.0626 0.02858,0.14711 0.02365,0.0564 0.06658,0.11127 0.03493,0.0516 0.09622,0.11873 l -0.111631,0.11313 -0.860322,-0.86541 z m -1.676951,1.07489 q -0.06859,-0.16347 -7.95e-4,-0.31787 0.05979,-0.15767 0.223261,-0.22627 0.157829,-0.0662 0.317869,-7.9e-4 0.157674,0.0598 0.226266,0.22326 0.06859,0.16347 0.0032,0.32351 -0.0678,0.1544 -0.225626,0.22063 -0.163467,0.0686 -0.315504,0.006 -0.16004,-0.0654 -0.228631,-0.2289 z m 3.676001,-5.94397 q 0.352386,0.18449 0.548692,0.40137 0.188736,0.2127 0.2736,0.50632 0.08486,0.29363 0.03204,0.59524 -0.05869,0.3033 -0.234188,0.57673 -0.177195,0.26755 -0.464542,0.48423 -0.289044,0.2108 -0.670759,0.32112 -0.375843,0.10862 -0.775583,0.0905 -0.407309,-0.0223 -0.76713,-0.16643 -0.35982,-0.14417 -0.633521,-0.40867 -0.275399,-0.27037 -0.387419,-0.65796 -0.137478,-0.47568 0.07207,-0.87348 l -0.663597,0.19179 q -0.375842,0.10862 -0.570417,0.18395 -0.202144,0.0712 -0.287619,0.12767 -0.08547,0.0565 -0.08612,0.12033 -0.0023,0.058 0.01972,0.13429 0.03395,0.11745 0.142673,0.25147 l -0.125666,0.0936 -0.75104,-0.94738 -0.05092,-0.17618 4.169502,-1.20506 q 0.375843,-0.10863 0.577987,-0.17977 0.202145,-0.0711 0.293491,-0.12937 0.08378,-0.0624 0.09199,-0.12203 0.0023,-0.058 -0.02142,-0.14016 -0.02885,-0.0998 -0.146067,-0.26322 l 0.123187,-0.0801 0.755216,0.93981 0.05262,0.18205 z m -0.276009,0.0798 -1.855723,0.53634 q -0.218064,0.0821 -0.364606,0.21355 -0.154112,0.12726 -0.237617,0.27865 -0.08938,0.1531 -0.107369,0.31101 -0.02386,0.15961 0.01687,0.30055 0.0594,0.20554 0.2219,0.34947 0.156624,0.14562 0.395328,0.22299 0.237006,0.0715 0.53508,0.0681 0.298073,-0.003 0.638681,-0.10187 0.399332,-0.11542 0.677548,-0.29764 0.276519,-0.18809 0.443801,-0.40188 0.159713,-0.21796 0.207711,-0.44818 0.048,-0.23021 -0.0131,-0.44162 -0.103533,-0.35823 -0.558502,-0.58943 z m -2.103723,-1.9959 q 0.417626,-0.0591 0.729039,-0.21434 0.310557,-0.16127 0.514848,-0.3754 0.203433,-0.22019 0.29021,-0.47943 0.08592,-0.26529 0.04736,-0.53766 -0.05141,-0.36315 -0.288848,-0.60118 -0.238292,-0.24409 -0.754254,-0.35626 l 0.06069,-0.13824 q 0.278363,0.004 0.562668,0.0932 0.278254,0.0902 0.518369,0.26 0.233206,0.16455 0.397154,0.40681 0.163948,0.24227 0.207648,0.55095 0.04713,0.33288 -0.04404,0.64831 -0.09808,0.31023 -0.31453,0.56931 -0.223359,0.25387 -0.555556,0.43673 -0.339105,0.17766 -0.780941,0.24021 -0.47815,0.0677 -0.872258,-0.0123 -0.394109,-0.08 -0.686929,-0.27318 -0.29282,-0.19315 -0.469675,-0.48298 -0.177713,-0.29588 -0.229124,-0.65904 -0.0437,-0.30868 0.0284,-0.58436 0.06605,-0.27482 0.23922,-0.49073 0.166261,-0.2211 0.429255,-0.36946 0.262993,-0.14836 0.607988,-0.1972 z m -0.229996,0.0326 -0.243348,-1.71892 q -0.510182,0.1031 -0.715384,0.35441 -0.212111,0.24611 -0.16327,0.5911 0.02313,0.16342 0.111991,0.31136 0.08886,0.14794 0.233954,0.25705 0.14424,0.10306 0.343865,0.16123 0.193572,0.059 0.432192,0.0438 z m 3.568967,-3.67357 -0.177152,0.007 q -0.156182,-0.41627 -0.457808,-0.63138 -0.301853,-0.22122 -0.625612,-0.20917 -0.06719,0.003 -0.121037,0.0351 -0.04796,0.0262 -0.0466,0.0629 0.0011,0.0306 0.06609,0.13212 0.06495,0.10157 0.06927,0.21764 0.0073,0.19548 -0.104245,0.32197 -0.117855,0.12061 -0.32555,0.12834 -0.09774,0.004 -0.190959,-0.0357 -0.09322,-0.0394 -0.156808,-0.10427 -0.06992,-0.0708 -0.109984,-0.16107 -0.0464,-0.0961 -0.05049,-0.20611 -0.005,-0.13439 0.05154,-0.25883 0.05654,-0.12445 0.168969,-0.22651 0.106319,-0.10183 0.263099,-0.16271 0.156552,-0.067 0.35203,-0.0743 0.421497,-0.0157 0.792819,0.26412 0.371094,0.2737 0.602427,0.90127 z m -4.496126,-6.53003 -0.196702,-1.22961 0.0339,-0.14901 0.852362,0.19392 q -0.417714,-0.39595 -0.544716,-0.7195 -0.131606,-0.33085 -0.05973,-0.64676 0.07052,-0.30995 0.270526,-0.52775 0.201366,-0.22376 0.492393,-0.34562 0.285066,-0.12322 0.634596,-0.144 0.350885,-0.0267 0.72044,0.0573 0.41724,0.0949 0.765635,0.29957 0.34975,0.19869 0.585682,0.48432 0.237288,0.27967 0.333668,0.62759 0.09638,0.34792 0.0096,0.7294 -0.03119,0.13709 -0.06888,0.24763 -0.03633,0.10458 -0.09515,0.19777 -0.05882,0.0932 -0.147437,0.17961 -0.08726,0.0804 -0.214359,0.17065 l 1.114627,0.25359 q 0.196699,0.0447 0.312662,0.0586 0.115963,0.0139 0.186954,0.005 0.07099,-0.009 0.10893,-0.0379 0.03929,-0.035 0.0813,-0.0818 0.08537,-0.0997 0.154532,-0.40368 l 0.143054,0.0325 -0.436662,1.91931 -0.143054,-0.0325 0.02305,-0.10133 q 0.02983,-0.13113 0.04097,-0.23517 0.01113,-0.10404 -0.04548,-0.18588 -0.05661,-0.0818 -0.197488,-0.15151 -0.134917,-0.0683 -0.403143,-0.12933 l -3.457133,-0.78654 q -0.20862,-0.0475 -0.33786,-0.0581 -0.133845,-0.0179 -0.207548,0.003 -0.07966,0.0195 -0.112462,0.081 -0.0374,0.0542 -0.0591,0.14955 -0.01085,0.0477 -0.0079,0.11732 -0.0016,0.0623 0.01189,0.14062 z m 0.927985,-1.13046 1.364972,0.31055 q 0.441082,0.10035 0.592273,0.0971 0.124635,0.003 0.248199,-0.0438 0.117603,-0.0485 0.22546,-0.13678 0.101898,-0.0897 0.180772,-0.2159 0.08023,-0.13221 0.116846,-0.29314 0.05289,-0.23246 -0.01372,-0.43569 -0.07121,-0.21054 -0.233473,-0.37911 -0.168221,-0.16993 -0.422885,-0.29055 -0.253309,-0.1266 -0.56922,-0.19847 -0.345713,-0.0786 -0.654054,-0.0736 -0.306985,-8.9e-4 -0.5514,0.0814 -0.243059,0.0763 -0.404309,0.23401 -0.165855,0.15034 -0.21603,0.37088 -0.02034,0.0894 -0.02605,0.1696 -0.01167,0.0788 0.01568,0.17911 0.02734,0.10025 0.112116,0.25119 0.08017,0.14362 0.234828,0.37315 z m 1.448298,-3.88472 q 0.394091,0.15033 0.741727,0.16517 0.349813,0.009 0.632209,-0.0794 0.284575,-0.0943 0.485951,-0.27915 0.203554,-0.1906 0.301594,-0.44762 0.130721,-0.34268 0.0381,-0.66589 -0.09044,-0.32891 -0.487707,-0.67672 l 0.120001,-0.0916 q 0.241765,0.13802 0.447318,0.35382 0.19984,0.21362 0.327846,0.47836 0.124472,0.25684 0.15073,0.54818 0.02626,0.29135 -0.08485,0.58263 -0.119827,0.31413 -0.352234,0.54606 -0.23594,0.22405 -0.55072,0.34604 -0.318314,0.11411 -0.69751,0.1134 -0.382728,-0.009 -0.799665,-0.16764 -0.451206,-0.17212 -0.757386,-0.43285 -0.30618,-0.26073 -0.468984,-0.57144 -0.162803,-0.31072 -0.177344,-0.64994 -0.01236,-0.34492 0.118359,-0.68761 0.111112,-0.29129 0.307601,-0.49766 0.190778,-0.20856 0.446795,-0.31372 0.252484,-0.11305 0.554428,-0.11564 0.301943,-0.003 0.627497,0.1216 z m -0.217035,-0.0828 0.618742,-1.62205 q -0.496368,-0.15663 -0.797548,-0.036 -0.304712,0.11276 -0.428896,0.43831 -0.05882,0.15421 -0.05264,0.32667 0.0062,0.17247 0.08037,0.33816 0.07637,0.15998 0.222922,0.30748 0.140842,0.14532 0.357054,0.24742 z m 0.640063,-4.70824 0.748153,0.38973 q -0.527869,-0.8126 -0.299111,-1.25173 0.05083,-0.0976 0.125725,-0.16196 0.07771,-0.0698 0.168416,-0.0984 0.0881,-0.0368 0.180949,-0.0298 0.09025,-0.001 0.171568,0.0411 0.140956,0.0734 0.187707,0.22185 0.04957,0.143 -0.01821,0.27311 -0.03107,0.0596 -0.111378,0.12119 -0.07749,0.0561 -0.165819,0.10661 -0.08551,0.0451 -0.157346,0.0904 -0.06902,0.0399 -0.08596,0.0724 -0.05083,0.0976 0.03861,0.3096 0.08944,0.21202 0.268448,0.4638 l 1.599312,0.83312 q 0.146378,0.0763 0.274121,0.12212 0.130568,0.0404 0.248376,0.026 0.112386,-0.0173 0.220486,-0.1057 0.105503,-0.0967 0.207173,-0.29185 l 0.130113,0.0678 -0.88961,1.70774 -0.130114,-0.0678 q 0.08472,-0.16264 0.113874,-0.27153 0.03197,-0.1143 -0.002,-0.20782 -0.03399,-0.0935 -0.141965,-0.17735 -0.113396,-0.0866 -0.313987,-0.19113 l -1.290293,-0.67215 q -0.292756,-0.15251 -0.466467,-0.22921 -0.170888,-0.0821 -0.236171,-0.10235 -0.245098,-0.0588 -0.343943,0.13099 -0.03107,0.0596 -0.04587,0.12775 -0.02022,0.0653 -0.03265,0.1553 l -0.147059,-0.0352 0.115865,-1.21477 z m 2.357933,-3.87925 1.063073,0.70861 -0.07798,0.11699 q -0.289923,-0.1051 -0.515414,-0.13051 -0.222101,-0.0305 -0.386553,0.007 -0.164453,0.0373 -0.293297,0.14244 -0.125453,0.10004 -0.227167,0.25263 -0.08137,0.12208 -0.110185,0.24245 -0.02881,0.12038 -0.02033,0.22889 0.0085,0.1085 0.05257,0.19666 0.04748,0.0831 0.123774,0.13393 0.09664,0.0644 0.191589,0.0983 0.09834,0.0288 0.210232,0.0152 0.111896,-0.0136 0.250916,-0.0678 0.14241,-0.0593 0.332288,-0.16787 l 0.576417,-0.33573 q 0.79681,-0.46799 1.351235,-0.0984 0.213632,0.1424 0.33063,0.35262 0.115302,0.20175 0.139054,0.43063 0.02375,0.22888 -0.03557,0.46115 -0.05424,0.23567 -0.183074,0.42895 -0.09832,0.14751 -0.232251,0.29332 -0.128841,0.14921 -0.306848,0.29503 -0.05255,0.0458 -0.09324,0.0848 -0.04069,0.039 -0.06442,0.0746 -0.05086,0.0763 0.0051,0.17971 l -0.07459,0.1119 -1.113937,-0.74251 0.07459,-0.1119 q 0.269579,0.11357 0.51711,0.13899 0.242446,0.022 0.449283,-0.0238 0.20175,-0.0492 0.364502,-0.16109 0.166142,-0.117 0.274637,-0.27976 0.07798,-0.11699 0.106794,-0.23737 0.02881,-0.12037 0.01524,-0.23227 -0.01866,-0.11529 -0.078,-0.21362 -0.05935,-0.0983 -0.15599,-0.16274 -0.116988,-0.078 -0.232278,-0.10341 -0.120376,-0.0288 -0.267875,0.005 -0.152584,0.0305 -0.357722,0.12887 -0.201748,0.0933 -0.498433,0.26283 -0.288208,0.16786 -0.500128,0.25434 -0.20853,0.0814 -0.376374,0.10175 -0.164454,0.0153 -0.301786,-0.0322 -0.137331,-0.0475 -0.284839,-0.14578 -0.193286,-0.12884 -0.311977,-0.30346 -0.120387,-0.1831 -0.1577,-0.39163 -0.03731,-0.20853 0.01184,-0.42555 0.04407,-0.2204 0.183074,-0.42895 0.04408,-0.0661 0.132231,-0.15429 0.08816,-0.0882 0.181397,-0.17295 0.09663,-0.0899 0.174616,-0.16277 0.07798,-0.0729 0.09833,-0.10342 0.0373,-0.056 0.0339,-0.0949 -0.0051,-0.0475 -0.06444,-0.1458 z m 1.992617,-2.48326 q 0.258114,-0.29399 0.59074,-0.44123 0.332627,-0.14723 0.687444,-0.15297 0.354257,-0.0144 0.709418,0.1185 0.354601,0.12423 0.648597,0.38234 0.344528,0.30248 0.528511,0.66737 0.188016,0.3603 0.225345,0.73472 0.03274,0.37039 -0.07424,0.72387 -0.111569,0.34944 -0.353551,0.62506 -0.254081,0.28941 -0.591301,0.43261 -0.333187,0.1386 -0.692598,0.14031 -0.355378,-0.003 -0.71054,-0.13575 -0.351128,-0.13745 -0.645124,-0.39557 -0.303184,-0.26618 -0.481453,-0.60978 -0.182862,-0.34764 -0.23285,-0.7169 -0.04999,-0.36927 0.04377,-0.72622 0.09375,-0.35696 0.347836,-0.64636 z m 0.117429,0.27392 q -0.116958,0.13322 -0.166132,0.30968 -0.05377,0.17243 -0.0098,0.38182 0.03934,0.20536 0.189029,0.44253 0.149693,0.23717 0.439096,0.49125 0.29859,0.26215 0.626642,0.44441 0.32749,0.17364 0.635033,0.24029 0.307542,0.0666 0.576761,0.0102 0.269219,-0.0565 0.446673,-0.25861 0.129057,-0.14699 0.182825,-0.31942 0.05321,-0.18105 0.0052,-0.38585 -0.04796,-0.2048 -0.210316,-0.43682 -0.162914,-0.24064 -0.466098,-0.50682 -0.303184,-0.26618 -0.622048,-0.44038 -0.323457,-0.17823 -0.621812,-0.23681 -0.298916,-0.0672 -0.558947,-0.003 -0.260593,0.0559 -0.446112,0.26723 z m 3.232138,-2.52661 q -0.01293,-1.02915 0.444792,-1.41564 0.1588,-0.13408 0.341572,-0.19241 0.178829,-0.063 0.383392,-0.0197 0.20529,0.0347 0.438804,0.19753 0.229571,0.15818 0.489856,0.46644 l 1.033253,1.2237 q 0.157748,0.18682 0.267136,0.27847 0.114059,0.0877 0.208089,0.10432 0.09476,0.008 0.19066,-0.049 0.0959,-0.057 0.226679,-0.1674 l 0.09465,0.11209 -1.415193,1.19495 -0.09465,-0.11209 0.05605,-0.0473 q 0.140118,-0.11831 0.1998,-0.20871 0.06041,-0.099 0.04651,-0.19127 -0.0092,-0.0962 -0.08665,-0.20686 -0.07669,-0.11925 -0.206836,-0.27338 l -0.989872,-1.17232 q -0.335216,-0.39701 -0.583886,-0.48306 -0.244,-0.09 -0.486872,0.11508 -0.378319,0.31944 -0.399523,1.0334 l 1.273819,1.5086 q 0.153805,0.18216 0.253852,0.28169 0.100773,0.0909 0.194804,0.10753 0.09403,0.0166 0.203218,-0.0436 0.105243,-0.0649 0.268714,-0.20289 l 0.09465,0.11209 -1.419864,1.19889 -0.09465,-0.11209 0.06072,-0.0513 q 0.112094,-0.0947 0.162435,-0.17716 0.05107,-0.0911 0.04184,-0.18733 -0.0092,-0.0962 -0.08198,-0.2108 -0.07202,-0.1232 -0.202166,-0.27733 l -0.895223,-1.06022 q -0.260285,-0.30826 -0.4116,-0.46852 -0.151315,-0.16025 -0.242438,-0.21132 -0.0904,-0.0597 -0.148933,-0.0343 -0.05387,0.0215 -0.119255,0.0767 -0.04671,0.0394 -0.08625,0.0968 -0.03882,0.0488 -0.08449,0.12734 l -0.141355,-0.0727 0.568283,-1.07988 0.135448,-0.11437 z m 5.900758,-1.20223 q -0.131534,0.34237 -0.215368,0.55377 -0.0819,0.20297 -0.127788,0.26785 -0.136325,0.20826 -0.343427,0.33825 -0.165681,0.10398 -0.344471,0.1296 -0.170363,0.0275 -0.338908,-0.011 -0.166616,-0.047 -0.31781,-0.16139 -0.151194,-0.1144 -0.268182,-0.3008 -0.136486,-0.21745 -0.160885,-0.44031 -0.01922,-0.2261 0.06908,-0.47638 0.09022,-0.25871 0.300246,-0.55653 0.315283,-0.48657 0.710872,-0.99468 l -0.07799,-0.12426 q -0.149485,-0.23817 -0.291646,-0.37268 -0.136982,-0.13775 -0.27314,-0.18221 -0.139407,-0.0496 -0.270883,-0.0176 -0.134726,0.0268 -0.27452,0.11456 -0.222635,0.13974 -0.277331,0.34006 -0.0547,0.20033 0.03954,0.35048 l 0.137093,0.19542 q 0.10074,0.16051 0.07314,0.30052 -0.02567,0.13158 -0.160285,0.21608 -0.129438,0.0812 -0.267524,0.0452 -0.141335,-0.0412 -0.238825,-0.19652 -0.09099,-0.14497 -0.101069,-0.33351 -0.01333,-0.19372 0.06533,-0.40187 0.07866,-0.20814 0.24869,-0.40869 0.171961,-0.20897 0.451549,-0.38445 0.367606,-0.23073 0.68955,-0.28124 0.327121,-0.0538 0.60676,0.13881 0.156371,0.11115 0.445592,0.57196 l 0.675933,1.07693 q 0.172233,0.27441 0.271651,0.42131 0.101346,0.13847 0.164302,0.19278 0.06296,0.0543 0.10377,0.0503 0.03757,-0.009 0.08416,-0.0384 0.03624,-0.0227 0.06081,-0.0526 0.02457,-0.0299 0.04649,-0.0869 0.02192,-0.0571 0.0412,-0.14134 0.02121,-0.0927 0.05398,-0.23596 l 0.123488,0.19675 q -0.06335,0.76148 -0.415422,0.98245 -0.165682,0.10399 -0.340726,0.0551 -0.178293,-0.0541 -0.357026,-0.33885 z m -0.142985,-0.22782 -0.760424,-1.21154 q -0.271438,0.37245 -0.594432,0.89273 -0.115615,0.19526 -0.113248,0.4175 0.0075,0.219 0.131031,0.41575 0.07799,0.12426 0.187656,0.20699 0.106414,0.0776 0.222467,0.11297 0.116054,0.0354 0.233319,0.0268 0.119193,-0.0171 0.217567,-0.0788 0.264055,-0.16574 0.476064,-0.78236 z m 4.169965,-2.68708 q -0.3858,-0.0432 -0.657666,-0.25719 -0.273935,-0.21979 -0.398061,-0.56492 -0.09516,-0.2646 -0.07437,-0.53193 0.02447,-0.27514 0.146479,-0.51391 0.125691,-0.24659 0.34937,-0.43747 0.221611,-0.19663 0.526477,-0.30628 0.506192,-0.18205 0.963289,-0.0671 l 0.747784,-0.26893 q 0.08628,-0.031 0.134369,-0.0418 0.04602,-0.0165 0.06534,-0.017 0.02301,-0.008 0.02715,0.003 0.0078,0.004 0.01771,0.0131 0.0276,0.0226 0.04415,0.0686 0.0223,0.0439 0.04506,0.10722 0.02896,0.0805 -0.003,0.11803 -0.02831,0.0297 -0.206624,0.0938 l -0.460175,0.1655 q 0.322021,0.20899 0.47511,0.63466 0.08689,0.24159 0.06771,0.49534 -0.02124,0.248 -0.145319,0.48101 -0.120393,0.2252 -0.344072,0.41608 -0.225748,0.18513 -0.542118,0.29891 -0.132301,0.0476 -0.276559,0.08 -0.138507,0.0303 -0.285289,0.0377 -0.118777,0.21162 -0.136993,0.34159 -0.02028,0.12423 0.0087,0.20476 0.02276,0.0633 0.06025,0.0953 0.03749,0.032 0.134117,0.0297 0.09663,-0.002 0.269646,-0.045 0.178772,-0.0448 0.474202,-0.14456 0.401039,-0.13124 0.660341,-0.20501 0.265055,-0.0758 0.389988,-0.10778 0.378938,-0.0843 0.664626,0.0598 0.28938,0.13629 0.40316,0.45266 0.10344,0.28761 0.0256,0.59495 -0.07,0.31102 -0.27994,0.59439 -0.207833,0.28912 -0.525162,0.52668 -0.317329,0.23755 -0.696974,0.37409 -0.2646,0.0952 -0.561393,0.13694 -0.296792,0.0418 -0.556297,0.0247 -0.259504,-0.0171 -0.452959,-0.10344 -0.185634,-0.0827 -0.24149,-0.23796 -0.03103,-0.0863 -0.04067,-0.16727 -0.0039,-0.083 0.0279,-0.21142 0.03754,-0.13043 0.119737,-0.33539 0.09002,-0.20128 0.236899,-0.53344 -0.24477,-0.0484 -0.358401,-0.11146 -0.1157,-0.0688 -0.159144,-0.18962 -0.02483,-0.069 -0.03446,-0.15001 -0.0039,-0.0831 0.02629,-0.19785 0.0281,-0.12054 0.103389,-0.29053 0.08103,-0.17206 0.222367,-0.41128 z m 0.423138,1.30297 q -0.219643,0.52723 -0.118274,0.80909 0.04758,0.1323 0.188359,0.1986 0.146529,0.0642 0.349672,0.0691 0.210964,0.009 0.467037,-0.038 0.256073,-0.0466 0.532178,-0.14592 0.350884,-0.1262 0.579155,-0.28625 0.228271,-0.16005 0.353707,-0.33509 0.12751,-0.16928 0.15839,-0.3363 0.0329,-0.16126 -0.0167,-0.29931 -0.0352,-0.0978 -0.10026,-0.15234 -0.0651,-0.0545 -0.196686,-0.0592 -0.125841,-0.007 -0.329691,0.0406 -0.198097,0.0453 -0.501348,0.14133 -0.863282,0.29099 -1.365539,0.39367 z m -0.527987,-3.70784 q -0.281857,0.10137 -0.394681,0.40179 -0.114893,0.29468 0.05475,0.76636 0.09309,0.25884 0.225546,0.46456 0.130383,0.19997 0.286095,0.32586 0.161465,0.12382 0.332618,0.16621 0.174836,0.0346 0.358906,-0.0316 0.293361,-0.10551 0.40457,-0.39236 0.111209,-0.28685 -0.0605,-0.76428 -0.09309,-0.25885 -0.223477,-0.45882 -0.132451,-0.20571 -0.288164,-0.33161 -0.157781,-0.13164 -0.334686,-0.17196 -0.176905,-0.0403 -0.360975,0.0259 z m 3.817381,-1.32412 0.18496,0.82305 q 0.28025,-0.92759 0.76335,-1.03615 0.10735,-0.0241 0.20485,-0.008 0.10347,0.0143 0.18382,0.0652 0.085,0.0436 0.13952,0.11901 0.0592,0.0682 0.0793,0.15762 0.0348,0.15507 -0.0484,0.28655 -0.0773,0.13014 -0.2204,0.1623 -0.0656,0.0147 -0.16445,-0.007 -0.0929,-0.023 -0.18844,-0.0579 -0.0896,-0.0362 -0.17055,-0.0619 -0.075,-0.027 -0.11077,-0.019 -0.10736,0.0241 -0.21163,0.22926 -0.10427,0.20512 -0.18114,0.50433 l 0.39538,1.75943 q 0.0362,0.16103 0.0836,0.28822 0.0533,0.12585 0.14039,0.20654 0.0857,0.0747 0.22302,0.10025 0.14193,0.0182 0.35664,-0.03 l 0.0322,0.14314 -1.87871,0.42218 -0.0322,-0.14314 q 0.17893,-0.0402 0.28092,-0.0882 0.10796,-0.0493 0.15748,-0.13564 0.0495,-0.0863 0.0439,-0.22288 -0.007,-0.14254 -0.0566,-0.36321 l -0.31898,-1.41947 q -0.0724,-0.32206 -0.12585,-0.50427 -0.0475,-0.18355 -0.0742,-0.24648 -0.11325,-0.22516 -0.322,-0.17825 -0.0656,0.0147 -0.12719,0.0474 -0.06292,0.0267 -0.139722,0.0752 l -0.06795,-0.1351 1.002852,-0.69525 z m 4.56865,2.64123 q -0.26869,0.24966 -0.43694,0.40266 -0.16281,0.14628 -0.23255,0.18438 -0.21401,0.1271 -0.45717,0.15278 -0.19454,0.0205 -0.36637,-0.0351 -0.16512,-0.0502 -0.29954,-0.15892 -0.12899,-0.11546 -0.21447,-0.28469 -0.0855,-0.16924 -0.1086,-0.38808 -0.027,-0.25532 0.0491,-0.46621 0.0821,-0.21152 0.27151,-0.39748 0.19479,-0.19269 0.51438,-0.36781 0.49712,-0.29838 1.07584,-0.58078 l -0.0154,-0.1459 q -0.0295,-0.27963 -0.0981,-0.46295 -0.0625,-0.18396 -0.1652,-0.28375 -0.10338,-0.10587 -0.23554,-0.13495 -0.13279,-0.0352 -0.29693,-0.0178 -0.2614,0.0276 -0.39861,0.18348 -0.13721,0.15587 -0.1186,0.33216 l 0.0372,0.2358 q 0.0199,0.18845 -0.0665,0.30207 -0.0809,0.10689 -0.23897,0.12358 -0.15198,0.0161 -0.26016,-0.077 -0.10882,-0.0992 -0.12808,-0.28152 -0.018,-0.17022 0.0559,-0.34398 0.0732,-0.17985 0.23538,-0.3322 0.16217,-0.15236 0.40307,-0.25771 0.24633,-0.11207 0.5746,-0.14674 0.43162,-0.0456 0.74297,0.0506 0.31744,0.0956 0.48392,0.39147 0.0916,0.16859 0.1487,0.70963 l 0.13353,1.26445 q 0.034,0.32219 0.0587,0.49784 0.0301,0.16893 0.0628,0.24539 0.0327,0.0765 0.0711,0.0909 0.0378,0.008 0.0925,0.003 0.0426,-0.004 0.0777,-0.0205 0.0352,-0.016 0.08,-0.0576 0.0448,-0.0416 0.0992,-0.10882 0.0598,-0.0739 0.15224,-0.18819 l 0.0244,0.23101 q -0.39173,0.65605 -0.80511,0.69971 -0.19453,0.0205 -0.33024,-0.10036 -0.13634,-0.12698 -0.17165,-0.46133 z m -0.0282,-0.26748 -0.15022,-1.4225 q -0.40756,0.21515 -0.92643,0.5404 -0.1897,0.12453 -0.2853,0.32518 -0.0895,0.20001 -0.0651,0.43102 0.0154,0.14589 0.0775,0.26842 0.0615,0.11644 0.15013,0.19929 0.0887,0.0828 0.19778,0.12663 0.11456,0.0371 0.23007,0.0249 0.31003,-0.0327 0.77158,-0.49332 z m 2.77785,-4.27907 -0.003,1.22869 0.87414,0.002 -6.7e-4,0.28731 -0.87415,-0.002 -0.006,2.43293 q -4.4e-4,0.18338 0.0237,0.3057 0.0303,0.12233 0.079,0.18969 0.0548,0.0674 0.12202,0.0981 0.0672,0.0246 0.14666,0.0248 0.14059,3.3e-4 0.26304,-0.0788 0.12857,-0.0853 0.1962,-0.25017 l 0.15893,3.8e-4 q -0.14154,0.40312 -0.40487,0.60422 -0.26333,0.20111 -0.54452,0.20044 -0.32399,-7.6e-4 -0.51907,-0.2274 -0.19507,-0.22664 -0.19378,-0.77679 l 0.006,-2.52462 -0.59906,-0.001 3.1e-4,-0.13449 q 0.34875,-0.13366 0.6246,-0.45699 0.28197,-0.32943 0.52177,-0.92182 z m 3.40609,4.67459 q -0.31579,0.18654 -0.51282,0.3001 -0.19029,0.10814 -0.26655,0.13048 -0.23621,0.0785 -0.47925,0.0516 -0.19444,-0.0215 -0.35044,-0.11247 -0.1506,-0.0843 -0.25871,-0.21921 -0.10136,-0.14033 -0.14875,-0.32391 -0.0474,-0.18359 -0.0232,-0.40232 0.0282,-0.25519 0.14751,-0.44497 0.12542,-0.18911 0.35011,-0.33036 0.23143,-0.14666 0.58104,-0.24952 0.54936,-0.18537 1.17502,-0.33772 l 0.0161,-0.14582 q 0.0308,-0.2795 0.003,-0.47322 -0.0217,-0.19305 -0.10082,-0.31248 -0.0784,-0.1255 -0.2013,-0.18211 -0.12223,-0.0627 -0.28628,-0.0808 -0.26127,-0.0288 -0.42859,0.0941 -0.16733,0.12298 -0.18677,0.29918 l -0.014,0.23831 q -0.0208,0.18836 -0.12941,0.28092 -0.10187,0.0872 -0.25984,0.0697 -0.1519,-0.0168 -0.23772,-0.13079 -0.0851,-0.12009 -0.065,-0.30237 0.0188,-0.17013 0.12803,-0.32412 0.10991,-0.16007 0.30087,-0.2743 0.19096,-0.11422 0.44879,-0.16572 0.26458,-0.0569 0.59268,-0.0207 0.4314,0.0476 0.71504,0.20806 0.28972,0.16113 0.38919,0.48576 0.0535,0.18425 -0.006,0.72501 l -0.13948,1.26381 q -0.0356,0.32203 -0.0489,0.4989 -0.007,0.17147 0.009,0.25314 0.0156,0.0817 0.05,0.10392 0.0351,0.0162 0.0898,0.0222 0.0425,0.005 0.0803,-0.003 0.0378,-0.008 0.0904,-0.0392 0.0526,-0.0311 0.1201,-0.0851 0.0742,-0.0595 0.1889,-0.15135 l -0.0255,0.23088 q -0.52276,0.55731 -0.93593,0.51171 -0.19443,-0.0215 -0.30119,-0.16855 -0.1061,-0.15316 -0.0692,-0.48733 z m 0.0295,-0.26735 0.15692,-1.42178 q -0.4441,0.12318 -1.02044,0.33017 -0.21191,0.0812 -0.34814,0.25678 -0.13016,0.17629 -0.15564,0.40717 -0.0161,0.14583 0.0184,0.27879 0.0352,0.12688 0.10412,0.22674 0.0689,0.0999 0.16619,0.16594 0.104,0.0607 0.21944,0.0734 0.30988,0.0342 0.85912,-0.31723 z m 1.37885,2.44805 0.0375,-0.17325 q 0.442,-0.0481 0.72517,-0.28698 0.28916,-0.23758 0.35776,-0.55421 0.0142,-0.0657 -0.004,-0.12596 -0.0135,-0.053 -0.0494,-0.0607 -0.0299,-0.006 -0.14437,0.0313 -0.11451,0.0377 -0.22802,0.0131 -0.19118,-0.0414 -0.28607,-0.18081 -0.0876,-0.14408 -0.0436,-0.34721 0.0207,-0.0956 0.082,-0.17614 0.0612,-0.0805 0.13989,-0.12606 0.0859,-0.0502 0.18331,-0.0666 0.10465,-0.0211 0.21219,0.002 0.13143,0.0285 0.23798,0.11411 0.10654,0.0856 0.17753,0.21985 0.0723,0.12825 0.0924,0.29523 0.0261,0.16827 -0.0153,0.35945 -0.0893,0.41223 -0.45244,0.70258 -0.35716,0.29165 -1.0225,0.36016 z m 8.46742,-1.90054 q 0.84102,-0.42033 1.39029,-0.13839 0.25017,0.1284 0.42539,0.36264 0.17523,0.23424 0.24039,0.53566 0.0706,0.30421 0.0176,0.66179 -0.0476,0.36038 -0.24296,0.74106 -0.20936,0.40787 -0.52941,0.68335 -0.31725,0.27003 -0.68774,0.40281 -0.37048,0.13278 -0.75584,0.1205 -0.38256,-0.0177 -0.72517,-0.19358 -0.57102,-0.2931 -0.98957,-1.04389 l 1.77536,-3.45876 q 0.17586,-0.34262 0.25445,-0.5359 0.0868,-0.19592 0.1043,-0.29689 0.0175,-0.10097 -0.0285,-0.1452 -0.0406,-0.0414 -0.11127,-0.0777 -0.1142,-0.0586 -0.28631,-0.0714 l 0.0181,-0.15564 1.21001,0.10575 0.16315,0.0837 z m -0.12003,0.23385 -1.02446,1.99586 q 0.19086,0.56521 0.59873,0.77456 0.16315,0.0838 0.37376,0.075 0.2106,-0.009 0.4278,-0.12397 0.22264,-0.11247 0.44099,-0.33707 0.21836,-0.22461 0.39701,-0.57266 0.1619,-0.31542 0.20874,-0.60746 0.0523,-0.28924 0.003,-0.52762 -0.044,-0.23558 -0.16791,-0.40913 -0.12113,-0.17898 -0.30059,-0.2711 -0.087,-0.0447 -0.17697,-0.0702 -0.09,-0.0256 -0.20473,-0.0295 -0.10655,-0.007 -0.25175,0.0219 -0.13697,0.0259 -0.32346,0.0813 z m 5.24939,1.94583 q 0.31766,0.22837 0.49648,0.54513 0.17882,0.31677 0.21897,0.66936 0.0487,0.35119 -0.0491,0.71756 -0.0892,0.36499 -0.31759,0.68265 -0.26761,0.37225 -0.61292,0.59078 -0.34035,0.2221 -0.70938,0.29559 -0.36546,0.0685 -0.72766,-0.004 -0.35862,-0.0771 -0.65643,-0.29122 -0.31269,-0.22479 -0.48795,-0.54652 -0.17029,-0.31817 -0.20686,-0.67572 -0.0316,-0.35398 0.0661,-0.72036 0.10272,-0.36281 0.33108,-0.68047 0.2355,-0.32758 0.56018,-0.53836 0.32825,-0.21573 0.69092,-0.30133 0.36267,-0.0856 0.72704,-0.0269 0.36437,0.0587 0.67706,0.28346 z m -0.26123,0.14346 q -0.14394,-0.10347 -0.32434,-0.13529 -0.17683,-0.0368 -0.38097,0.0273 -0.20057,0.0591 -0.4221,0.23108 -0.22152,0.17201 -0.44631,0.4847 -0.23193,0.32263 -0.3815,0.66682 -0.14103,0.34279 -0.17751,0.65535 -0.0365,0.31256 0.0459,0.57503 0.0823,0.26246 0.30073,0.41946 0.15883,0.11418 0.33566,0.15096 0.18536,0.0354 0.38454,-0.0322 0.19918,-0.0676 0.41434,-0.25172 0.2237,-0.1855 0.4592,-0.51309 0.2355,-0.32758 0.37793,-0.66185 0.14599,-0.33923 0.17534,-0.64186 0.0379,-0.30403 -0.0516,-0.55657 -0.0809,-0.25393 -0.30927,-0.41807 z m 2.828,2.97133 q 1.02304,-0.11276 1.45213,0.30528 0.14887,0.14504 0.22466,0.32128 0.08,0.17187 0.0568,0.37967 -0.0146,0.20769 -0.154,0.45591 -0.13515,0.24384 -0.41669,0.53282 l -1.11762,1.14715 q -0.17063,0.17514 -0.25123,0.29291 -0.0762,0.12203 -0.0836,0.21723 0.001,0.0951 0.0673,0.18501 0.066,0.0899 0.18861,0.20936 l -0.10237,0.10508 -1.32668,-1.29252 0.10238,-0.10508 0.0525,0.0512 q 0.13136,0.12797 0.22712,0.17859 0.10441,0.0505 0.19489,0.0277 0.0949,-0.0185 0.19746,-0.10632 0.11125,-0.0879 0.25202,-0.2324 l 1.0707,-1.09899 q 0.36259,-0.37217 0.42409,-0.62802 0.0659,-0.25158 -0.16179,-0.4734 -0.35466,-0.34553 -1.0673,-0.29733 l -1.37783,1.41424 q -0.16636,0.17076 -0.25572,0.28 -0.0807,0.10912 -0.0881,0.20432 -0.007,0.0952 0.0631,0.19803 0.0748,0.0984 0.22802,0.24775 l -0.10238,0.10508 -1.33105,-1.29678 0.10237,-0.10508 0.0569,0.0555 q 0.10509,0.10238 0.19209,0.14447 0.0957,0.042 0.19051,0.0235 0.0949,-0.0185 0.20185,-0.10205 0.11562,-0.0836 0.25639,-0.22813 l 0.96832,-0.99391 q 0.28154,-0.28898 0.42635,-0.45514 0.14481,-0.16615 0.18679,-0.2618 0.0506,-0.0958 0.0196,-0.15156 -0.0266,-0.0515 -0.0879,-0.11125 -0.0438,-0.0427 -0.10474,-0.0764 -0.0523,-0.0339 -0.13494,-0.0717 l 0.0586,-0.14774 1.12994,0.46078 0.12698,0.1237 z m 1.76912,5.75586 q -0.35353,-0.0977 -0.57207,-0.16059 -0.20996,-0.0618 -0.27899,-0.10118 -0.22051,-0.11546 -0.36999,-0.30897 -0.11958,-0.1548 -0.16243,-0.33026 -0.0439,-0.16688 -0.0219,-0.33837 0.0306,-0.17039 0.12977,-0.33198 0.0992,-0.16159 0.27334,-0.29612 0.20318,-0.15695 0.42261,-0.20287 0.22317,-0.0411 0.48084,0.0225 0.26625,0.0647 0.58305,0.2448 0.51488,0.26655 1.05899,0.61095 l 0.11611,-0.0897 q 0.22253,-0.1719 0.3426,-0.32645 0.1238,-0.14971 0.15483,-0.28954 0.0359,-0.14356 -0.009,-0.27131 -0.0398,-0.13149 -0.14067,-0.2621 -0.16069,-0.20802 -0.36538,-0.24301 -0.20469,-0.035 -0.34498,0.0734 l -0.18119,0.15542 q -0.14997,0.11585 -0.292,0.10197 -0.13346,-0.0128 -0.23062,-0.13855 -0.0934,-0.12094 -0.071,-0.26187 0.0273,-0.14467 0.17241,-0.25678 0.13545,-0.10463 0.32212,-0.13296 0.19151,-0.0321 0.40631,0.026 0.2148,0.0581 0.4309,0.20784 0.22468,0.15086 0.42648,0.41209 0.26533,0.34347 0.34685,0.65899 0.0853,0.32036 -0.0793,0.61737 -0.0954,0.16643 -0.52599,0.49902 l -1.00622,0.77729 q -0.2564,0.19806 -0.39295,0.31127 -0.12798,0.11431 -0.17592,0.18224 -0.0479,0.0679 -0.04,0.10817 0.0127,0.0365 0.0464,0.08 0.0262,0.0339 0.0583,0.0554 0.0321,0.0216 0.091,0.0378 0.0589,0.0163 0.14467,0.0273 0.0943,0.0121 0.24009,0.0308 l -0.18383,0.14201 q -0.76404,0.0109 -1.01815,-0.31808 -0.11958,-0.15481 -0.0879,-0.33377 0.0365,-0.1827 0.3026,-0.38824 z m 0.21285,-0.16443 1.132,-0.87445 q -0.39704,-0.23399 -0.94622,-0.50495 -0.20556,-0.0961 -0.42653,-0.0722 -0.21723,0.0288 -0.40106,0.17077 -0.1161,0.0897 -0.1878,0.20687 -0.0668,0.11344 -0.0908,0.23238 -0.024,0.11894 -0.004,0.23482 0.0286,0.11697 0.0996,0.20888 0.19058,0.24672 0.82487,0.39786 z m 5.12343,3.33905 -2.19929,1.10993 q -0.26195,0.1322 -0.39823,0.24206 -0.13352,0.11532 -0.17963,0.21391 -0.0379,0.10129 -0.0184,0.19416 0.0277,0.0956 0.0773,0.19381 l 0.15148,0.30016 -0.13098,0.0661 -1.00802,-1.99737 0.13097,-0.0661 0.0744,0.14735 q 0.0661,0.13097 0.14291,0.20176 0.085,0.0735 0.19988,0.084 0.11761,0.016 0.27327,-0.0284 0.16112,-0.0471 0.37941,-0.15724 l 2.19929,-1.10993 -0.32775,-0.64942 0.26741,-0.13495 0.32774,0.64942 0.2183,-0.11017 q 0.36018,-0.18177 0.70445,-0.23227 0.34972,-0.0532 0.65344,0.0194 0.30918,0.0699 0.55323,0.26858 0.25226,0.20136 0.41476,0.52334 0.0716,0.14189 0.10236,0.32494 0.039,0.18575 0.026,0.36349 -0.013,0.17775 -0.0835,0.3229 -0.0678,0.15061 -0.19876,0.21671 -0.10914,0.0551 -0.25419,0.0119 -0.1396,-0.046 -0.19744,-0.16056 -0.022,-0.0437 -0.0331,-0.0928 -0.008,-0.0437 -4.1e-4,-0.10935 0.008,-0.0656 0.0404,-0.15051 0.0379,-0.0876 0.10583,-0.2109 0.13031,-0.24379 0.14071,-0.38599 0.0159,-0.14495 -0.0557,-0.28684 -0.0854,-0.16917 -0.23875,-0.24241 -0.14515,-0.0705 -0.36095,-0.0233 -0.20487,0.0418 -0.99072,0.43837 l -0.24012,0.12119 0.43515,0.86225 -0.2674,0.13495 z m 1.5528,2.54152 -2.80275,1.10755 q -0.25015,0.0988 -0.37536,0.1812 -0.11952,0.0801 -0.15735,0.16734 -0.0299,0.0907 -0.003,0.19183 0.0348,0.10458 0.0909,0.2467 l -0.13644,0.0539 -0.66948,-1.69416 0.13644,-0.0539 q 0.0696,0.17624 0.13283,0.26959 0.0711,0.0968 0.16748,0.12443 0.0964,0.0276 0.22594,-0.0104 0.13749,-0.0346 0.33647,-0.11325 l 1.34168,-0.53019 q 0.32974,-0.1303 0.51854,-0.21805 0.1888,-0.0877 0.26853,-0.15213 0.0854,-0.0666 0.0857,-0.13245 0.008,-0.0624 -0.0255,-0.14768 -0.0225,-0.0568 -0.0642,-0.11264 -0.0338,-0.0524 -0.0937,-0.12072 l 0.11398,-0.11077 0.84199,0.88325 z m 1.69911,-1.03952 q 0.0652,0.16487 -0.006,0.31782 -0.0631,0.15639 -0.22795,0.22154 -0.15918,0.0629 -0.31782,-0.006 -0.15638,-0.0631 -0.22153,-0.22795 -0.0652,-0.16487 0.004,-0.32351 0.071,-0.15294 0.2302,-0.21585 0.16486,-0.0652 0.31557,1.8e-4 0.15863,0.0688 0.22378,0.23364 z m -3.79982,5.8653 q -0.34845,-0.19183 -0.54017,-0.41277 -0.18424,-0.21661 -0.26293,-0.51195 -0.0787,-0.29534 -0.0196,-0.59577 0.065,-0.30201 0.24621,-0.5717 0.18276,-0.26379 0.47459,-0.47439 0.29339,-0.2047 0.67733,-0.30701 0.37804,-0.10073 0.77731,-0.0743 0.40676,0.0308 0.76348,0.18247 0.35672,0.15167 0.62482,0.42185 0.26968,0.27608 0.37355,0.66593 0.12749,0.47845 -0.0903,0.87178 l 0.66747,-0.17785 q 0.37803,-0.10073 0.57414,-0.17196 0.20359,-0.0669 0.29023,-0.12162 0.0866,-0.0547 0.0886,-0.11851 0.004,-0.0579 -0.0169,-0.13467 -0.0315,-0.11813 -0.13738,-0.2544 l 0.1276,-0.0909 0.73103,0.9629 0.0472,0.1772 -4.19383,1.11747 q -0.37803,0.10073 -0.58162,0.16763 -0.20359,0.0669 -0.29614,0.12319 -0.0851,0.0606 -0.0945,0.12008 -0.004,0.0579 0.0185,0.14058 0.0268,0.10041 0.14053,0.26621 l -0.12484,0.0776 -0.73537,-0.95542 -0.0488,-0.18311 z m 0.27762,-0.074 1.86655,-0.49735 q 0.21973,-0.0775 0.369,-0.20587 0.15674,-0.124 0.2434,-0.27362 0.0926,-0.15119 0.11386,-0.30869 0.0272,-0.15907 -0.0106,-0.30084 -0.0551,-0.20673 -0.21453,-0.35403 -0.15354,-0.14888 -0.39057,-0.23122 -0.23546,-0.0764 -0.53354,-0.0793 -0.29808,-0.003 -0.64067,0.0885 -0.40166,0.10702 -0.68363,0.28337 -0.2804,0.18226 -0.45212,0.3925 -0.16425,0.21457 -0.21706,0.44373 -0.0528,0.22916 0.004,0.44181 0.096,0.36031 0.54604,0.60099 z m 2.06138,2.03909 q -0.41877,0.0504 -0.73337,0.19903 -0.31386,0.15474 -0.52259,0.36455 -0.208,0.21588 -0.30018,0.47325 -0.0915,0.26343 -0.0586,0.53655 0.0438,0.36414 0.2762,0.6071 0.23313,0.24902 0.74663,0.37196 l -0.0636,0.13695 q -0.27822,-0.01 -0.56059,-0.10497 -0.27631,-0.0961 -0.51282,-0.27079 -0.22971,-0.1694 -0.38855,-0.41504 -0.15884,-0.24564 -0.19607,-0.55517 -0.0402,-0.3338 0.0576,-0.64725 0.10455,-0.30811 0.32638,-0.5626 0.22862,-0.24915 0.56457,-0.42501 0.34275,-0.17052 0.7858,-0.22381 0.47946,-0.0577 0.87181,0.0306 0.39235,0.0883 0.68106,0.2875 0.28871,0.19924 0.45946,0.49271 0.17148,0.29953 0.21528,0.66368 0.0372,0.30953 -0.0406,0.58364 -0.0718,0.27338 -0.24944,0.48562 -0.17085,0.21757 -0.43689,0.36039 -0.26604,0.14283 -0.61199,0.18444 z m 0.23063,-0.0277 0.20731,1.72364 q 0.51223,-0.0924 0.72265,-0.33936 0.21721,-0.24162 0.1756,-0.58756 -0.0197,-0.16386 -0.10545,-0.31363 -0.0857,-0.14977 -0.22852,-0.26189 -0.14205,-0.10606 -0.34041,-0.16839 -0.1923,-0.0631 -0.43118,-0.0528 z m -3.64507,3.59778 0.17725,-0.003 q 0.14744,0.41945 0.4445,0.64082 0.29716,0.22748 0.6211,0.22221 0.0672,-10e-4 0.12174,-0.0326 0.0485,-0.0252 0.0479,-0.0619 -4.9e-4,-0.0306 -0.0633,-0.13347 -0.0628,-0.10291 -0.0647,-0.21904 -0.003,-0.19559 0.11096,-0.31972 0.12035,-0.11812 0.32816,-0.1215 0.0978,-0.002 0.19018,0.0397 0.0924,0.0413 0.15459,0.10753 0.0684,0.0722 0.10659,0.16334 0.0444,0.0971 0.0462,0.20711 0.002,0.13447 -0.0569,0.2577 -0.0591,0.12324 -0.17367,0.22292 -0.10843,0.0996 -0.26645,0.15718 -0.15791,0.0637 -0.3535,0.0669 -0.42173,0.007 -0.78712,-0.28065 -0.36529,-0.2814 -0.58344,-0.91368 z"
         id="text1-1-1-7"
         transform="matrix(0.79386003,-0.16298262,0.16298262,0.79386003,-7.3204927,55.050276)"
         aria-label="   persona grata,  bona fide,  persona grata,  bona fide, " />
      <path
         d="m 97.257484,155.52939 h -3.742823 l -4.763593,-6.57314 q -0.262926,0.0155 -0.479453,0.0309 -0.20106,0 -0.371189,0 -0.139196,0 -0.293858,0 -0.154662,-0.0155 -0.32479,-0.0309 v 4.08308 q 0,0.74238 0.0928,1.17543 0.108264,0.41759 0.293858,0.63412 0.201061,0.20106 0.463986,0.24745 0.278392,0.0464 0.618649,0.0464 h 0.556784 v 0.38666 h -6.031823 v -0.38666 h 0.541317 q 0.866108,0 1.26823,-0.57225 0.216527,-0.34025 0.216527,-1.53115 v -9.07867 q 0,-1.29916 -0.293858,-1.63942 -0.402122,-0.46398 -1.190899,-0.46398 h -0.541317 v -0.38666 h 5.119316 q 1.129033,0 1.948743,0.0928 0.819709,0.0773 1.34556,0.24746 0.525851,0.17013 0.989838,0.47945 0.463986,0.29386 0.804243,0.72691 0.355722,0.41759 0.556783,0.94344 0.201061,0.52585 0.201061,1.12904 0,1.31462 -0.835175,2.25806 -0.835176,0.94344 -2.61379,1.34556 l 2.892181,4.02122 q 0.510385,0.69598 0.897041,1.1445 0.402121,0.44852 0.788776,0.71144 0.402122,0.26293 0.835176,0.38666 0.44852,0.12373 1.051702,0.18559 z m -9.975706,-7.22272 q 0.201061,0 0.340256,0.0155 0.154663,0 0.24746,0 1.005304,0 1.763148,-0.23199 0.757844,-0.23199 1.268229,-0.64958 0.510385,-0.41759 0.757845,-0.97437 0.262925,-0.57225 0.262925,-1.2373 0,-0.64958 -0.216527,-1.1909 -0.216527,-0.55678 -0.618648,-0.94344 -0.402122,-0.40212 -0.958905,-0.61864 -0.556784,-0.21653 -1.221831,-0.21653 -0.634115,0 -1.623952,0.20106 z m 24.127292,7.22272 h -3.74283 l -4.76359,-6.57314 q -0.26292,0.0155 -0.47945,0.0309 -0.20106,0 -0.37119,0 -0.1392,0 -0.29386,0 -0.15466,-0.0155 -0.32479,-0.0309 v 4.08308 q 0,0.74238 0.0928,1.17543 0.10826,0.41759 0.29386,0.63412 0.20106,0.20106 0.46398,0.24745 0.27839,0.0464 0.61865,0.0464 h 0.55679 v 0.38666 h -6.031827 v -0.38666 h 0.541317 q 0.866108,0 1.268229,-0.57225 0.216527,-0.34025 0.216527,-1.53115 v -9.07867 q 0,-1.29916 -0.293858,-1.63942 -0.402121,-0.46398 -1.190898,-0.46398 h -0.541317 v -0.38666 h 5.119317 q 1.12903,0 1.94874,0.0928 0.81971,0.0773 1.34556,0.24746 0.52585,0.17013 0.98984,0.47945 0.46399,0.29386 0.80424,0.72691 0.35573,0.41759 0.55679,0.94344 0.20106,0.52585 0.20106,1.12904 0,1.31462 -0.83518,2.25806 -0.83517,0.94344 -2.61379,1.34556 l 2.89218,4.02122 q 0.51039,0.69598 0.89704,1.1445 0.40212,0.44852 0.78878,0.71144 0.40212,0.26293 0.83518,0.38666 0.44852,0.12373 1.0517,0.18559 z m -9.97571,-7.22272 q 0.20106,0 0.34026,0.0155 0.15466,0 0.24746,0 1.0053,0 1.76315,-0.23199 0.75784,-0.23199 1.26822,-0.64958 0.51039,-0.41759 0.75785,-0.97437 0.26292,-0.57225 0.26292,-1.2373 0,-0.64958 -0.21652,-1.1909 -0.21653,-0.55678 -0.61865,-0.94344 -0.40212,-0.40212 -0.95891,-0.61864 -0.55678,-0.21653 -1.22183,-0.21653 -0.63411,0 -1.62395,0.20106 z m 16.13126,-0.57225 5.18118,5.15025 q 0.64958,0.64958 1.17543,1.08263 0.52585,0.41759 0.98984,0.68051 0.46399,0.24746 0.89704,0.37119 0.44852,0.10827 0.91251,0.12373 v 0.38666 h -6.68141 v -0.38666 q 0.66505,0 0.89704,-0.23199 0.232,-0.23199 0.232,-0.49492 0,-0.10826 -0.0155,-0.18559 -0.0155,-0.0928 -0.0928,-0.20106 -0.0619,-0.10827 -0.21652,-0.2784 -0.15467,-0.17012 -0.41759,-0.43305 l -4.85639,-4.80999 v 4.5316 q 0,0.49492 0.0155,0.80424 0.0309,0.30933 0.0773,0.51039 0.0619,0.20106 0.17012,0.32479 0.12373,0.10826 0.30933,0.21652 0.44852,0.24746 0.94344,0.24746 h 0.47945 v 0.38666 h -5.98542 v -0.38666 h 0.49492 q 0.8661,0 1.26822,-0.51038 0.24746,-0.34026 0.24746,-1.59302 v -9.07867 q 0,-0.46398 -0.0155,-0.77331 -0.0155,-0.32479 -0.0773,-0.52585 -0.0619,-0.20106 -0.17013,-0.32479 -0.10827,-0.1392 -0.29386,-0.23199 -0.49492,-0.24746 -0.9589,-0.24746 h -0.49492 v -0.38666 h 5.98542 v 0.38666 h -0.47945 q -0.38666,0 -0.81971,0.17013 -0.41759,0.17012 -0.57225,0.57225 -0.12373,0.34025 -0.12373,1.36102 v 4.29961 q 0.0155,-0.0155 0.20106,-0.1856 0.20106,-0.18559 0.43305,-0.40212 0.24746,-0.21652 0.46399,-0.43305 0.23199,-0.21653 0.32479,-0.29386 1.12903,-1.03624 1.90234,-1.77861 0.77331,-0.74238 1.2373,-1.25277 0.46399,-0.52585 0.66505,-0.8661 0.20106,-0.35573 0.20106,-0.58772 0,-0.24746 -0.21653,-0.41759 -0.21652,-0.18559 -0.74238,-0.18559 h -0.32479 v -0.38666 h 5.16572 v 0.38666 q -0.27839,0.0155 -0.57225,0.0619 -0.27839,0.0309 -0.63412,0.1856 -0.34025,0.15466 -0.78877,0.47945 -0.44852,0.32479 -1.06717,0.89704 -0.12373,0.10826 -0.63412,0.64958 -0.51038,0.52585 -1.46929,1.46929 z"
         id="text3-8-48-2"
         style="font-size:31.6748px;font-family:'Microsoft Himalaya';-inkscape-font-specification:'Microsoft Himalaya';text-align:center;text-anchor:middle;fill:#ffffff;stroke-width:2.184"
         transform="matrix(0.92772903,0.00104324,-0.00104324,0.92772903,10.821289,43.719994)"
         aria-label="RRK" />
    </g>
  </g>
</svg>
